<svg width="100" height="100" viewBox="0 0 100 100" fill="none" xmlns="http://www.w3.org/2000/svg">
<circle cx="50" cy="50" r="50" fill="#37786A"/>
<path d="M62.53 35.2972C62.9307 35.2972 63.2558 34.9628 63.2558 34.5501C63.2558 34.1374 62.9307 33.803 62.53 33.803H59.4222C59.1702 30.4078 57.2204 27.4946 54.445 25.9657L54.7454 25.2594C54.9062 24.8815 54.7389 24.4408 54.3718 24.2753C54.0048 24.1097 53.5767 24.2819 53.4158 24.66L53.1156 25.3654C52.1393 25.0135 51.0915 24.8198 50 24.8198C45.0321 24.8198 40.95 28.7858 40.5778 33.803H37.47C37.0693 33.803 36.7442 34.1374 36.7442 34.5501C36.7442 34.9628 37.0693 35.2972 37.47 35.2972H47.7246C48.0326 36.2888 48.9358 37.0092 50 37.0092C51.0626 37.0092 51.9645 36.2888 52.2721 35.2972H62.53ZM50 32.0947C48.9363 32.0947 48.0334 32.8134 47.725 33.8031H46.3296C46.7298 32.0988 48.223 30.8287 50 30.8287C50.2595 30.8287 50.5128 30.8558 50.7576 30.9074L50.2468 32.1079C50.1656 32.0991 50.0833 32.0947 50 32.0947ZM51.575 32.7108L52.0967 31.4846C52.8723 32.0196 53.4448 32.8423 53.6704 33.803H52.2718C52.1388 33.376 51.8944 33.0009 51.575 32.7108ZM55.119 28.226L54.5729 28.7864C54.2889 29.0776 54.2882 29.5507 54.5712 29.8429C54.713 29.9894 54.8991 30.0626 55.0852 30.0626C55.2706 30.0626 55.456 29.99 55.5975 29.8447L56.1452 29.2827C57.1572 30.5318 57.8163 32.0928 57.9666 33.803H55.1512C54.8892 32.2328 53.9652 30.8928 52.6854 30.1007L53.8604 27.3391C54.3079 27.594 54.7292 27.8912 55.119 28.226ZM43.8546 29.2827L44.4022 29.8447C44.5439 29.99 44.7292 30.0626 44.9145 30.0626C45.1007 30.0626 45.2867 29.9894 45.4285 29.8429C45.7116 29.5507 45.7108 29.0776 45.4268 28.7864L44.8808 28.226C46.0944 27.1833 47.6116 26.5042 49.274 26.3495V27.1483C49.274 27.561 49.599 27.8954 49.9998 27.8954C50.4005 27.8954 50.7256 27.561 50.7256 27.1483V26.3495C51.3508 26.4077 51.9552 26.5406 52.531 26.7389L51.349 29.517C50.9183 29.3984 50.4663 29.3343 49.9999 29.3343C47.4195 29.3343 45.2711 31.2691 44.8485 33.803H42.0331C42.1834 32.0928 42.8426 30.5318 43.8546 29.2827ZM50 35.5149C49.4832 35.5149 49.0627 35.0821 49.0627 34.5501C49.0627 34.02 49.4832 33.5888 50 33.5888C50.1269 33.5888 50.2479 33.6152 50.3583 33.6626C50.3636 33.6653 50.3686 33.6682 50.374 33.6707C50.3766 33.6719 50.3792 33.6726 50.3819 33.6738C50.7067 33.8245 50.9337 34.1602 50.9337 34.5501C50.9339 35.0822 50.515 35.5149 50 35.5149ZM78.2489 59.383H72.4937V52.6436C72.4937 51.0638 71.2452 49.7786 69.7105 49.7786H59.4528V39.9177H61.5834C65.9808 39.9177 69.5583 36.2351 69.5583 31.7087C69.5583 27.1822 65.9808 23.4996 61.5834 23.4996C61.5718 23.4996 61.5603 23.4996 61.5487 23.4997C60.3027 20.4989 57.4216 18.5192 54.2177 18.5192C53.129 18.5192 52.0485 18.7505 51.0531 19.1925C49.6504 16.6225 46.9961 15 44.0985 15C39.7009 15 36.1234 18.6825 36.1234 23.2089C36.1234 23.4196 36.131 23.6296 36.1464 23.8377C32.8037 24.8569 30.4415 28.0634 30.4415 31.7085C30.4415 36.235 34.019 39.9176 38.4164 39.9176H40.547V49.7784H30.2896C28.7548 49.7784 27.5063 51.0636 27.5063 52.6434V59.3829H21.7511C20.7856 59.383 20 60.1917 20 61.1856V70.5253C20 71.5193 20.7856 72.3279 21.7511 72.3279H25.8867L25.8216 73.5056H24.5733C24.1725 73.5056 23.8475 73.8401 23.8475 74.2527C23.8475 74.6654 24.1725 74.9999 24.5733 74.9999H31.8876C32.2884 74.9999 32.6134 74.6654 32.6134 74.2527C32.6134 73.8401 32.2884 73.5056 31.8876 73.5056H30.6418L30.5754 72.3279H34.7131C35.6786 72.3279 36.4643 71.5193 36.4643 70.5253V61.1856C36.4643 60.1917 35.6788 59.383 34.7131 59.383H28.9579V52.6436C28.9579 51.8877 29.5552 51.2728 30.2896 51.2728H41.273C41.6738 51.2728 41.9988 50.9384 41.9988 50.5257V39.9177H58.0013V50.5257C58.0013 50.9384 58.3263 51.2728 58.7271 51.2728H69.7106C70.4448 51.2728 71.0422 51.8877 71.0422 52.6436V59.383H65.2871C64.3215 59.383 63.5358 60.1917 63.5358 61.1856V70.5253C63.5358 71.5193 64.3214 72.3279 65.2871 72.3279H69.4248L69.3583 73.5056H68.1125C67.7117 73.5056 67.3867 73.8401 67.3867 74.2527C67.3867 74.6654 67.7117 74.9999 68.1125 74.9999H75.4267C75.8275 74.9999 76.1525 74.6654 76.1525 74.2527C76.1525 73.8401 75.8275 73.5056 75.4267 73.5056H74.1776L74.1112 72.3279H78.2489C79.2143 72.3279 80 71.5193 80 70.5253V61.1856C80 60.1917 79.2144 59.383 78.2489 59.383ZM29.1876 73.5055H27.2755L27.3406 72.3278H29.1213L29.1876 73.5055ZM34.7131 70.8335H21.7511C21.5888 70.8335 21.4516 70.6923 21.4516 70.5252V69.8746H35.0126V70.5252C35.0126 70.6923 34.8755 70.8335 34.7131 70.8335ZM35.0126 61.1856V68.3804H21.4516V61.1856C21.4516 61.0156 21.5859 60.8773 21.7511 60.8773H34.7131C34.8755 60.8773 35.0126 61.0185 35.0126 61.1856ZM31.8932 31.7087C31.8932 28.5373 34.0781 25.7723 37.0884 25.1338C37.4696 25.053 37.7209 24.6769 37.6583 24.2816C37.6031 23.9344 37.575 23.5735 37.575 23.2091C37.575 19.5066 40.5014 16.4944 44.0985 16.4944C46.675 16.4944 49.0163 18.0631 50.0636 20.4908C50.1461 20.6819 50.3025 20.8287 50.495 20.8956C50.6875 20.9625 50.8983 20.9432 51.0765 20.8424C52.0486 20.2924 53.1054 20.0136 54.2178 20.0136C56.9864 20.0136 59.4603 21.821 60.3737 24.5111C60.4808 24.8261 60.7774 25.0304 61.1017 25.0104C61.2835 24.9994 61.4411 24.994 61.5835 24.994C65.1804 24.994 68.1068 28.0061 68.1068 31.7088C68.1068 35.4114 65.1805 38.4236 61.5835 38.4236H38.4165C34.8196 38.4235 31.8932 35.4112 31.8932 31.7087ZM65.2869 60.8773H78.2489C78.414 60.8773 78.5484 61.0156 78.5484 61.1856V68.3804H64.9874V61.1856C64.9874 61.0185 65.1245 60.8773 65.2869 60.8773ZM72.7235 73.5055H70.8124L70.8788 72.3278H72.657L72.7235 73.5055ZM78.2489 70.8335H65.2869C65.1245 70.8335 64.9873 70.6923 64.9873 70.5252V69.8746H78.5484V70.5252C78.5484 70.6923 78.4112 70.8335 78.2489 70.8335ZM60.1324 61.5242L58.4319 61.1538L57.9045 59.8405L58.8523 58.3379C59.0391 58.0419 58.999 57.6518 58.7564 57.4024L56.3869 54.9669C56.1444 54.7178 55.7658 54.677 55.4787 54.869L54.0194 55.8445L52.7463 55.3017L52.6222 54.7005V48.9785H54.8524C55.1375 48.9785 55.3964 48.8066 55.5138 48.5391C55.6313 48.2716 55.5857 47.9581 55.3971 47.7377L50.545 42.0653C50.4072 41.9042 50.2088 41.8119 50.0002 41.8119C49.7917 41.8119 49.5933 41.9042 49.4555 42.0653L44.6034 47.7377C44.4148 47.9581 44.3692 48.2715 44.4867 48.5391C44.6041 48.8067 44.8629 48.9785 45.1481 48.9785H47.3783V54.7005L47.2542 55.3017L45.9811 55.8445L44.5217 54.869C44.2342 54.677 43.8559 54.7178 43.6136 54.9669L41.2441 57.4024C41.0015 57.6518 40.9614 58.0419 41.1482 58.3379L42.096 59.8405L41.5685 61.1538L39.8681 61.5242C39.5327 61.5973 39.2925 61.9021 39.2925 62.2551V65.7037C39.2925 66.0567 39.5325 66.3616 39.8681 66.4347L41.5685 66.8049L42.0958 68.1178L41.1485 69.6167C40.9615 69.9126 41.0012 70.3028 41.2438 70.5525L43.6133 72.9915C43.8554 73.2409 44.2344 73.2819 44.5217 73.0898L45.9811 72.1143L47.2544 72.6573L47.6172 74.4086C47.6887 74.7534 47.9846 75 48.327 75H51.6737C52.0162 75 52.3121 74.7536 52.3835 74.4086L52.7463 72.6573L54.0196 72.1143L55.479 73.0898C55.7664 73.282 56.1453 73.241 56.3875 72.9915L58.757 70.5525C58.9995 70.3029 59.0392 69.9127 58.8522 69.6167L57.9049 68.1178L58.4322 66.8049L60.1326 66.4347C60.4681 66.3616 60.7082 66.0567 60.7082 65.7037V62.2551C60.7079 61.9021 60.4678 61.5973 60.1324 61.5242ZM59.2563 65.0981L57.7572 65.4246C57.5229 65.4756 57.3282 65.6422 57.2367 65.8701L56.4172 67.9102C56.3259 68.1376 56.3492 68.3969 56.4796 68.6031L57.3143 69.9239L55.7763 71.5071L54.4896 70.647C54.289 70.5129 54.0372 70.4892 53.8167 70.5834L51.8381 71.427C51.6175 71.5211 51.4558 71.721 51.406 71.9614L51.086 73.5056H48.9141L48.5941 71.9614C48.5443 71.721 48.3827 71.5211 48.162 71.427L46.1835 70.5834C45.9628 70.4893 45.7111 70.513 45.5105 70.647L44.2238 71.5071L42.6858 69.9239L43.5205 68.6031C43.6509 68.3968 43.6742 68.1376 43.5829 67.9102L42.7635 65.8701C42.6719 65.6423 42.4773 65.4756 42.2429 65.4246L40.7438 65.0981V62.8607L42.2429 62.5342C42.4773 62.4831 42.6719 62.3165 42.7635 62.0886L43.5829 60.0485C43.6741 59.8212 43.6509 59.5623 43.5208 59.3561L42.6856 58.032L44.2233 56.4514L45.5105 57.3117C45.7111 57.4457 45.9627 57.4694 46.1835 57.3754L48.162 56.5319C48.3828 56.4377 48.5445 56.2376 48.5942 55.997L48.8137 54.9346C48.8242 54.8836 48.8295 54.8314 48.8295 54.7792V48.2315C48.8295 47.8189 48.5045 47.4844 48.1037 47.4844H46.754L50 43.6896L53.246 47.4843H51.8963C51.4955 47.4843 51.1705 47.8187 51.1705 48.2314V54.7791C51.1705 54.8313 51.1758 54.8834 51.1863 54.9345L51.4058 55.9969C51.4555 56.2376 51.6172 56.4376 51.838 56.5317L53.8165 57.3752C54.0372 57.4693 54.2889 57.4456 54.4895 57.3116L55.7767 56.4513L57.3144 58.0318L56.4792 59.356C56.3491 59.5622 56.3259 59.8211 56.4171 60.0483L57.2365 62.0885C57.3281 62.3163 57.5227 62.483 57.7571 62.534L59.2562 62.8605V65.0981H59.2563ZM50 58.8254C47.2382 58.8254 44.9913 61.1383 44.9913 63.9812C44.9913 66.8222 47.2382 69.1334 50 69.1334C52.7599 69.1334 55.0054 66.8221 55.0054 63.9812C55.0054 61.1383 52.7599 58.8254 50 58.8254ZM50 67.6392C48.0386 67.6392 46.4429 65.9982 46.4429 63.9812C46.4429 61.9622 48.0386 60.3197 50 60.3197C51.9596 60.3197 53.5538 61.9622 53.5538 63.9812C53.5538 65.9981 51.9596 67.6392 50 67.6392Z" fill="white"/>
</svg>
