<svg width="100" height="100" viewBox="0 0 100 100" fill="none" xmlns="http://www.w3.org/2000/svg">
<path d="M52.4457 63.8868L49.9316 67.9242C49.4236 68.7427 48.4603 69.2426 47.4363 69.2426H27.5812C26.9057 69.2426 26.2914 68.9288 25.9461 68.3953C25.587 67.8576 25.5885 67.2101 25.9217 66.6656L25.9224 66.6645L25.9224 66.6645L29.4088 61.0707C29.4089 61.0706 29.4089 61.0706 29.4089 61.0705L29.409 61.0705L29.5363 61.1498C30.0142 60.3799 30.9266 59.9023 31.9041 59.9023H53.3994H68.0627C69.0403 59.9023 69.9526 60.3799 70.4306 61.1498L52.4457 63.8868ZM52.4457 63.8868V78.4155H32.697C32.145 78.4155 31.7283 78.0194 31.7283 77.5616V72.182C31.7283 71.6944 31.287 71.3205 30.7854 71.3205C30.2838 71.3205 29.8425 71.6944 29.8425 72.182V77.5616C29.8425 79.0043 31.1418 80.1481 32.7079 80.1481H53.4103H67.2698C68.8358 80.1481 70.1352 79.0043 70.1352 77.5616V69.2426H72.3857C73.0615 69.2426 73.6762 68.9284 74.0214 68.3944C74.3673 67.8592 74.3797 67.2124 74.0451 66.6656L74.0445 66.6645L70.558 61.0707L52.4457 63.8868ZM48.2867 67.064L48.2857 67.0655C48.1209 67.3367 47.7928 67.51 47.4363 67.51H27.5812C27.5794 67.51 27.5779 67.5099 27.5767 67.5098L31.0539 61.9308L31.0539 61.9308L31.0547 61.9294C31.2196 61.6582 31.5476 61.485 31.9041 61.485H51.7712L48.2867 67.064ZM68.913 61.9211L72.3902 67.5002C72.3888 67.5002 72.3873 67.5002 72.3857 67.5002H59.3516C58.9951 67.5002 58.6671 67.327 58.5023 67.0558L58.5014 67.0544L55.0272 61.4752H68.0627C68.4192 61.4752 68.7472 61.6485 68.9121 61.9197L68.913 61.9211ZM68.2386 77.5519C68.2386 78.0097 67.8218 78.4057 67.2698 78.4057H54.3423V63.877L56.8563 67.9145C57.3644 68.733 58.3277 69.2328 59.3516 69.2328H68.2386V77.5519Z" fill="#337777" stroke="#37786A" stroke-width="0.3"/>
<path d="M49.9999 44.3343C52.9015 44.3343 55.2983 42.2163 55.2983 39.5746C55.2983 36.933 52.9126 34.8148 49.9999 34.8148C47.0978 34.8148 44.7123 36.9332 44.7123 39.5746C44.7123 42.2159 47.0978 44.3343 49.9999 44.3343ZM49.9999 36.5377C51.8879 36.5377 53.4017 37.9181 53.4017 39.5746C53.4017 41.2311 51.8879 42.6114 49.9999 42.6114C48.1119 42.6114 46.5981 41.2311 46.5981 39.5746C46.5981 37.9181 48.1119 36.5377 49.9999 36.5377Z" fill="#337777" stroke="#37786A" stroke-width="0.3"/>
<path d="M53.5685 55.9315C53.7482 56.3478 54.1762 56.8662 55.2046 57.1981L55.2057 57.1984C55.6861 57.3572 55.9659 57.8492 55.7754 58.3137C55.6302 58.669 55.2664 58.8845 54.887 58.8845C54.7793 58.8845 54.6754 58.8738 54.5687 58.838C52.5885 58.2038 51.8127 56.9595 51.6017 55.9413H49.1246C48.9136 56.9596 48.1377 58.2039 46.1572 58.8381C46.157 58.8382 46.1568 58.8383 46.1565 58.8383L46.1108 58.6955C45.698 58.8319 45.2419 58.6468 45.0898 58.2667C44.9377 57.8866 45.155 57.487 45.5677 57.3506C46.6929 56.9906 47.1483 56.4092 47.3228 55.9413L53.5685 55.9315ZM53.5685 55.9315H55.0065C55.9148 55.9315 56.7828 55.5551 57.3351 54.9253L57.3359 54.9244C58.6236 53.432 59.6799 51.8634 60.5251 50.2279L63.9483 50.497L67.0015 55.0627C67.0018 55.0632 67.0021 55.0637 67.0025 55.0642C67.3487 55.6093 67.9968 55.9315 68.6814 55.9315H69.7784C70.3189 55.9315 70.8422 55.6999 71.1668 55.2899C71.492 54.8792 71.5783 54.3554 71.3845 53.8655C71.3844 53.8653 71.3843 53.865 71.3842 53.8648L68.3001 45.9529C68.3001 45.9528 68.3001 45.9528 68.3001 45.9527C68.0455 45.2884 67.4935 44.7438 66.8305 44.4562C66.8301 44.4561 66.8297 44.4559 66.8294 44.4557L62.8583 42.66C62.9605 41.7766 63.0312 40.8895 63.0312 39.9739C63.0312 31.3966 58.3599 25.6188 54.7693 22.4363L54.7537 22.4223L54.7374 22.4076C54.5087 22.2024 54.2797 22.0067 54.0611 21.8301L54.061 21.83C54.0438 21.8145 54.0231 21.7959 53.992 21.7789C53.3096 21.2158 52.681 20.7492 52.1702 20.3981C51.9051 20.2121 51.6079 20.0793 51.3027 19.988C50.6987 19.804 50.0385 19.804 49.4345 19.988C49.1272 20.0799 48.842 20.213 48.5687 20.3969L48.5675 20.3978C45.307 22.6384 37.7059 29.0415 37.7059 39.9837C37.7059 40.8993 37.7766 41.7864 37.8788 42.6698L33.9186 44.4655C33.9182 44.4657 33.9178 44.4659 33.9174 44.466C33.2323 44.7635 32.6916 45.3083 32.4372 45.972C32.4371 45.9721 32.4371 45.9722 32.437 45.9724L29.3526 53.8851H29.3526L29.3522 53.8863C29.171 54.3632 29.2547 54.8946 29.5782 55.296C29.8629 55.7131 30.391 55.9413 30.9261 55.9413H32.0232C32.7078 55.9413 33.3555 55.6191 33.7017 55.0843C33.7019 55.084 33.7022 55.0836 33.7024 55.0833L36.767 50.5067L40.1908 50.2376C41.0462 51.8728 42.1025 53.4415 43.3904 54.9342C43.9436 55.5753 44.8126 55.9413 45.7198 55.9413H47.1616L53.5685 55.9315ZM64.5439 48.8392C64.8351 48.8619 65.1069 49.0098 65.2652 49.2464L68.578 54.1973L68.584 54.2062L68.5887 54.216C68.5887 54.216 68.5886 54.216 68.5889 54.2163C68.5893 54.2167 68.591 54.2182 68.5949 54.2201C68.6033 54.2241 68.618 54.2281 68.6379 54.2281H69.4825L66.478 46.5583L66.4764 46.5542L66.4765 46.5541C66.3944 46.3252 66.1992 46.1299 65.9609 46.0273L65.9582 46.0262L65.9583 46.0262L62.5439 44.4758L62.0804 46.2919C61.9387 46.7807 61.7858 47.261 61.6108 47.7323M64.5439 48.8392L64.544 48.8392L64.5322 48.9887L64.5439 48.8392ZM64.5439 48.8392L61.2734 48.5824M61.2734 48.5824C61.2838 48.556 61.2941 48.5298 61.3043 48.5038L61.3048 48.5025C61.3402 48.4119 61.3746 48.3243 61.4113 48.2395L61.4114 48.2395L61.4133 48.2347C61.4328 48.1852 61.4545 48.1329 61.4768 48.0792C61.5235 47.9665 61.573 47.8473 61.6108 47.7323M61.2734 48.5824C61.2543 48.6309 61.2346 48.6797 61.2143 48.7282L61.2737 48.1798M61.2734 48.5824L61.1169 48.5701C61.1331 48.5295 61.1491 48.4887 61.1651 48.4478C61.2004 48.3577 61.2357 48.2675 61.2737 48.1798M61.6108 47.7323C61.6105 47.7332 61.6102 47.7341 61.6098 47.735L61.4692 47.6828M61.6108 47.7323C61.6111 47.7314 61.6115 47.7305 61.6118 47.7295L61.4692 47.6828M61.4692 47.6828C61.433 47.7932 61.3872 47.9037 61.3413 48.0141C61.3184 48.0694 61.2954 48.1246 61.2737 48.1798M61.4692 47.6828C61.643 47.215 61.7951 46.7375 61.9363 46.2502C61.9906 46.065 62.0449 45.8798 62.0992 45.6849L61.2737 48.1798M38.1141 44.477L34.7136 46.0165L34.7091 46.0185L34.7091 46.0184C34.4643 46.1198 34.2766 46.3138 34.1829 46.549C34.1829 46.5491 34.1828 46.5492 34.1828 46.5493L31.1604 54.2393L31.996 54.2087L32.0015 54.2085V54.2086C32.0213 54.2086 32.0379 54.2047 32.0487 54.1998C32.0529 54.1979 32.0553 54.1964 32.0564 54.1955L32.061 54.1873L32.0614 54.1876L35.3742 49.227L35.3742 49.227C35.5325 48.9903 35.8043 48.8424 36.0955 48.8197M38.1141 44.477L39.4251 48.7087C39.4048 48.6602 39.3851 48.6114 39.366 48.5629M38.1141 44.477C38.1974 44.8895 38.3021 45.3052 38.4059 45.7033L38.4058 45.7033L38.4071 45.7076C38.4334 45.7974 38.4573 45.89 38.4818 45.9854L38.4821 45.9866C38.5063 46.0808 38.5313 46.1779 38.5592 46.2729L38.5593 46.2732C38.7011 46.7527 38.8541 47.2333 39.0292 47.7146L39.0292 47.7146L39.0306 47.7182L39.1283 47.9667L39.2261 48.2152L39.226 48.2153L39.228 48.22C39.2648 48.3048 39.2991 48.3925 39.3346 48.483L39.3351 48.4843C39.3453 48.5103 39.3556 48.5365 39.366 48.5629M38.1141 44.477L39.5225 48.5506L39.366 48.5629M36.0955 48.8197L36.1072 48.9692L36.0954 48.8197L36.0955 48.8197ZM36.0955 48.8197L39.366 48.5629M60.6817 44.1526L60.6816 44.1534C60.617 44.4622 60.5416 44.7715 60.4656 45.0836C60.4005 45.3461 60.3361 45.5967 60.2611 45.8465L60.2606 45.8481C60.1972 46.0686 60.1225 46.2878 60.0477 46.5071C60.0215 46.5838 59.9954 46.6604 59.9697 46.7372C59.9395 46.822 59.9113 46.9047 59.8834 46.9863C59.8287 47.1464 59.7754 47.3023 59.7116 47.4613L59.7111 47.4625C58.827 49.7264 57.5327 51.8655 55.8055 53.8609L55.805 53.8614C55.6214 54.0756 55.308 54.2086 54.9631 54.2086H52.4757H48.1962H45.7089C45.364 54.2086 45.0505 54.0756 44.867 53.8614L44.8668 53.8612C43.1499 51.8654 41.8449 49.726 40.9609 47.4625L40.9604 47.4613C40.8966 47.3023 40.8433 47.1464 40.7886 46.9863C40.7606 46.9042 40.7322 46.8211 40.7017 46.7358L40.7016 46.7354C40.5937 46.4353 40.4971 46.1462 40.4114 45.8481L40.4109 45.8465C40.3478 45.6361 40.2923 45.4191 40.2371 45.2034C40.2269 45.1633 40.2166 45.1232 40.2063 45.0832C40.1303 44.7712 40.0549 44.4621 39.9904 44.1534L39.9903 44.1526C39.9368 43.903 39.8938 43.6528 39.8503 43.3992C39.6669 42.2854 39.5591 41.1535 39.5591 39.9837C39.5699 34.5464 41.5961 30.3216 43.9388 27.2408C46.0603 28.2948 48.1966 28.8286 50.336 28.8286C52.4755 28.8286 54.6118 28.2948 56.7335 27.2406C59.0866 30.3214 61.1129 34.5462 61.1129 39.9837C61.1129 41.1437 61.0051 42.2853 60.8217 43.399C60.7782 43.6527 60.7352 43.9029 60.6817 44.1526ZM49.6717 21.7754C50.066 21.5085 50.596 21.5086 50.9902 21.7759C51.9696 22.4468 53.7743 23.8209 55.5781 25.8521C52.0581 27.5301 48.6134 27.5301 45.0934 25.8519C46.8866 23.8222 48.7008 22.4572 49.6717 21.7754Z" fill="#337777" stroke="#37786A" stroke-width="0.3"/>
<path d="M75.5243 55.975C75.0227 55.975 74.5814 56.3489 74.5814 56.8364V63.1224C74.5814 63.61 75.0227 63.9839 75.5243 63.9839C76.026 63.9839 76.4673 63.61 76.4673 63.1224V56.8364C76.4673 56.3501 76.0382 55.975 75.5243 55.975Z" fill="#337777" stroke="#37786A" stroke-width="0.3"/>
<path d="M79.207 60.893C78.7054 60.893 78.2641 61.2669 78.2641 61.7544V68.0404C78.2641 68.528 78.7054 68.9019 79.207 68.9019C79.7086 68.9019 80.1499 68.528 80.1499 68.0404V61.7544C80.1499 61.2669 79.7086 60.893 79.207 60.893Z" fill="#337777" stroke="#37786A" stroke-width="0.3"/>
<path d="M24.4745 55.975C23.9729 55.975 23.5316 56.3489 23.5316 56.8364V63.1224C23.5316 63.61 23.9729 63.9839 24.4745 63.9839C24.9761 63.9839 25.4174 63.61 25.4174 63.1224V56.8364C25.4174 56.3489 24.9761 55.975 24.4745 55.975Z" fill="#337777" stroke="#37786A" stroke-width="0.3"/>
<path d="M20.7929 60.893C20.2913 60.893 19.85 61.2669 19.85 61.7544V68.0404C19.85 68.528 20.2913 68.9019 20.7929 68.9019C21.2945 68.9019 21.7358 68.528 21.7358 68.0404V61.7544C21.7358 61.2669 21.2945 60.893 20.7929 60.893Z" fill="#337777" stroke="#37786A" stroke-width="0.3"/>
<path d="M34.6747 76.8658H38.6067C39.1083 76.8658 39.5496 76.492 39.5496 76.0044C39.5496 75.5169 39.1083 75.143 38.6067 75.143H34.6747C34.1731 75.143 33.7318 75.5169 33.7318 76.0044C33.7318 76.492 34.1731 76.8658 34.6747 76.8658Z" fill="#337777" stroke="#37786A" stroke-width="0.3"/>
<path d="M34.6747 73.9518H38.6067C39.1083 73.9518 39.5496 73.5779 39.5496 73.0903C39.5496 72.6028 39.1083 72.2289 38.6067 72.2289H34.6747C34.1731 72.2289 33.7318 72.6028 33.7318 73.0903C33.7318 73.5779 34.1731 73.9518 34.6747 73.9518Z" fill="#337777" stroke="#37786A" stroke-width="0.3"/>
<path d="M100 50C100 77.6142 77.6142 100 50 100C22.3858 100 0 77.6142 0 50C0 22.3858 22.3858 0 50 0C77.6142 0 100 22.3858 100 50ZM2.5 50C2.5 76.2335 23.7665 97.5 50 97.5C76.2335 97.5 97.5 76.2335 97.5 50C97.5 23.7665 76.2335 2.5 50 2.5C23.7665 2.5 2.5 23.7665 2.5 50Z" fill="#37786A"/>
</svg>
