<svg width="100" height="100" viewBox="0 0 100 100" fill="none" xmlns="http://www.w3.org/2000/svg">
<circle cx="50" cy="50" r="50" fill="#37786A"/>
<path d="M70.4306 60.1498C69.9526 59.3799 69.0403 58.9023 68.0627 58.9023H53.3994H31.9041C30.9266 58.9023 30.0142 59.3799 29.5363 60.1498L26.0497 65.7439C25.7455 66.2409 25.7455 66.8256 26.0714 67.3129C26.3864 67.8002 26.9512 68.0926 27.5812 68.0926H47.4363C48.4139 68.0926 49.3263 67.615 49.8042 66.8451L52.5957 62.3621V77.5655H32.697C32.0779 77.5655 31.5783 77.1171 31.5783 76.5616V71.182C31.5783 70.7922 31.2198 70.4705 30.7854 70.4705C30.3509 70.4705 29.9925 70.7922 29.9925 71.182V76.5616C29.9925 77.9066 31.209 78.9981 32.7079 78.9981H53.4103H67.2698C68.7687 78.9981 69.9852 77.9066 69.9852 76.5616V68.0926H72.3857C73.0156 68.0926 73.5804 67.8002 73.8954 67.3129C74.2104 66.8256 74.2213 66.2409 73.9172 65.7439L70.4306 60.1498ZM48.4139 66.1434C48.2184 66.465 47.8382 66.66 47.4363 66.66H27.5812C27.516 66.66 27.4726 66.6307 27.44 66.5917C27.4182 66.5625 27.3965 66.504 27.44 66.4456L30.9266 60.8515C31.1221 60.5299 31.5022 60.335 31.9041 60.335H52.0417L48.4139 66.1434ZM68.3886 76.5519C68.3886 77.1074 67.8889 77.5557 67.2698 77.5557H54.1923V62.3523L56.9838 66.8354C57.4617 67.6053 58.3741 68.0828 59.3516 68.0828H68.3886V76.5519ZM72.5269 66.582C72.4943 66.6307 72.4508 66.6502 72.3857 66.6502H59.3516C58.9497 66.6502 58.5696 66.4553 58.3741 66.1337L54.7571 60.3252H68.0627C68.4646 60.3252 68.8447 60.5201 69.0403 60.8417L72.5269 66.4358C72.5703 66.4943 72.5486 66.5528 72.5269 66.582Z" fill="white"/>
<path d="M49.9999 43.1843C52.8348 43.1843 55.1483 41.1182 55.1483 38.5746C55.1483 36.0309 52.8456 33.9648 49.9999 33.9648C47.165 33.9648 44.8623 36.0309 44.8623 38.5746C44.8623 41.1182 47.165 43.1843 49.9999 43.1843ZM49.9999 35.3877C51.955 35.3877 53.5517 36.8203 53.5517 38.5746C53.5517 40.3288 51.955 41.7614 49.9999 41.7614C48.0448 41.7614 46.4481 40.3288 46.4481 38.5746C46.4481 36.8203 48.0448 35.3877 49.9999 35.3877Z" fill="white"/>
<path d="M30.9261 54.7913H32.0232C32.664 54.7913 33.2614 54.4891 33.5764 54.0019L36.6828 49.3629L40.2781 49.0802C41.1361 50.737 42.2006 52.3256 43.504 53.8362C44.0253 54.4404 44.8508 54.7913 45.7198 54.7913H47.3707C47.2404 55.2785 46.8168 55.951 45.5677 56.3506C45.155 56.487 44.9377 56.8866 45.0898 57.2667C45.2419 57.6468 45.698 57.8319 46.1108 57.6955C48.1202 57.0523 48.8371 55.7756 49 54.7913H51.7263C51.8892 55.7756 52.6061 57.0523 54.6155 57.6955C54.7024 57.7247 54.7893 57.7345 54.887 57.7345C55.2129 57.7345 55.517 57.5493 55.6365 57.2569C55.7886 56.8866 55.5713 56.4773 55.1586 56.3408C53.9203 55.9413 53.4967 55.2688 53.3555 54.7815H55.0065C55.8755 54.7815 56.7009 54.4209 57.2223 53.8264C58.5257 52.3158 59.5902 50.7273 60.4374 49.0705L64.0326 49.3531L67.1282 53.9824C67.4432 54.4794 68.0406 54.7815 68.6814 54.7815H69.7784C70.2781 54.7815 70.756 54.5671 71.0492 54.1968C71.3425 53.8264 71.4185 53.3586 71.2448 52.9201L68.16 45.0065C67.9211 44.3828 67.3997 43.8663 66.7697 43.5934L62.6966 41.7514C62.8052 40.8353 62.8812 39.9192 62.8812 38.9739C62.8812 30.4561 58.2433 24.7159 54.6698 21.5485C54.6589 21.5388 54.6481 21.529 54.6372 21.5193C54.4091 21.3146 54.181 21.1197 53.9638 20.9443C53.9421 20.9248 53.9312 20.915 53.9095 20.9053C53.2252 20.34 52.5952 19.8722 52.0847 19.5214C51.8349 19.346 51.5525 19.2193 51.2592 19.1316C50.6836 18.9561 50.0536 18.9561 49.4779 19.1316C49.1847 19.2193 48.9131 19.346 48.6524 19.5214C45.4048 21.7532 37.8559 28.1171 37.8559 38.9837C37.8559 39.929 37.9319 40.8451 38.0406 41.7612L33.9783 43.6031C33.3266 43.8858 32.8161 44.4023 32.5771 45.026L29.4924 52.9396C29.3295 53.3684 29.4055 53.8459 29.6988 54.2065C29.9486 54.5768 30.4265 54.7913 30.9261 54.7913ZM62.4359 43.262L66.0203 44.8896C66.2918 45.0065 66.5199 45.2307 66.6177 45.5036L69.7024 53.3781H68.6379C68.5619 53.3781 68.4859 53.3489 68.4533 53.2807L65.1405 48.3298C65.0101 48.1349 64.782 48.0082 64.5322 47.9887L61.0565 47.7158C61.1325 47.5404 61.1977 47.3552 61.2737 47.1798C61.3389 47.0141 61.4149 46.8485 61.4692 46.6828C61.643 46.215 61.7951 45.7375 61.9363 45.2502C61.9906 45.065 62.0449 44.8798 62.0992 44.6849C62.2295 44.1976 62.3382 43.7298 62.4359 43.262ZM49.5865 20.6519C50.0319 20.3498 50.6293 20.3498 51.0746 20.6519C52.0847 21.3439 53.9638 22.7765 55.8211 24.901C52.139 26.7138 48.5329 26.7138 44.8508 24.901C46.6973 22.7765 48.5873 21.3536 49.5865 20.6519ZM43.895 26.051C46.0348 27.1328 48.1854 27.6786 50.336 27.6786C52.4866 27.6786 54.6372 27.1328 56.777 26.051C59.1774 29.1599 61.2629 33.4481 61.2629 38.9837C61.2629 40.1531 61.1542 41.3031 60.9696 42.4239C60.9261 42.6773 60.8827 42.9307 60.8284 43.1841C60.7632 43.4959 60.6872 43.8078 60.6112 44.1197C60.546 44.3828 60.4808 44.6362 60.4048 44.8896C60.3179 45.1917 60.2093 45.4938 60.1115 45.7862C60.0246 46.0298 59.9486 46.2735 59.8508 46.5171C58.9602 48.7976 57.6568 50.9514 55.9189 52.9591C55.7017 53.2124 55.3432 53.3586 54.9631 53.3586H52.4757H48.1962H45.7089C45.3287 53.3586 44.9703 53.2124 44.7531 52.9591C43.0261 50.9514 41.7118 48.7976 40.8211 46.5171C40.7234 46.2735 40.6474 46.0298 40.5605 45.7862C40.4518 45.4841 40.3541 45.1917 40.2672 44.8896C40.1912 44.6362 40.126 44.3731 40.0608 44.1197C39.9848 43.8078 39.9088 43.4959 39.8436 43.1841C39.7893 42.9307 39.7458 42.6773 39.7024 42.4239C39.5177 41.3031 39.4091 40.1629 39.4091 38.9837C39.42 33.4481 41.5054 29.1599 43.895 26.051ZM34.0434 45.4938C34.1521 45.2209 34.3693 44.9968 34.6517 44.8798L38.2252 43.262C38.3121 43.7298 38.4316 44.2074 38.5511 44.6654C38.6054 44.8506 38.6488 45.0455 38.7031 45.2307C38.8443 45.7082 38.9964 46.1858 39.1702 46.6633C39.2353 46.829 39.3005 46.9947 39.3657 47.1603C39.4417 47.3358 39.5069 47.5209 39.5829 47.6964L36.1072 47.9692C35.8574 47.9887 35.6293 48.1154 35.4989 48.3103L32.1861 53.2709C32.1535 53.3294 32.0775 53.3586 32.0015 53.3586L30.937 53.3976L34.0434 45.4938Z" fill="white"/>
<path d="M75.5243 55.125C75.0899 55.125 74.7314 55.4466 74.7314 55.8364V62.1224C74.7314 62.5123 75.0899 62.8339 75.5243 62.8339C75.9588 62.8339 76.3173 62.5123 76.3173 62.1224V55.8364C76.3173 55.4466 75.9697 55.125 75.5243 55.125Z" fill="white"/>
<path d="M79.207 60.043C78.7725 60.043 78.4141 60.3646 78.4141 60.7544V67.0404C78.4141 67.4302 78.7725 67.7519 79.207 67.7519C79.6414 67.7519 79.9999 67.4302 79.9999 67.0404V60.7544C79.9999 60.3646 79.6414 60.043 79.207 60.043Z" fill="white"/>
<path d="M24.4745 55.125C24.0401 55.125 23.6816 55.4466 23.6816 55.8364V62.1224C23.6816 62.5123 24.0401 62.8339 24.4745 62.8339C24.909 62.8339 25.2674 62.5123 25.2674 62.1224V55.8364C25.2674 55.4466 24.909 55.125 24.4745 55.125Z" fill="white"/>
<path d="M20.7929 60.043C20.3584 60.043 20 60.3646 20 60.7544V67.0404C20 67.4302 20.3584 67.7519 20.7929 67.7519C21.2274 67.7519 21.5858 67.4302 21.5858 67.0404V60.7544C21.5858 60.3646 21.2274 60.043 20.7929 60.043Z" fill="white"/>
<path d="M34.6747 75.7158H38.6067C39.0411 75.7158 39.3996 75.3942 39.3996 75.0044C39.3996 74.6146 39.0411 74.293 38.6067 74.293H34.6747C34.2403 74.293 33.8818 74.6146 33.8818 75.0044C33.8818 75.3942 34.2403 75.7158 34.6747 75.7158Z" fill="white"/>
<path d="M34.6747 72.8018H38.6067C39.0411 72.8018 39.3996 72.4802 39.3996 72.0903C39.3996 71.7005 39.0411 71.3789 38.6067 71.3789H34.6747C34.2403 71.3789 33.8818 71.7005 33.8818 72.0903C33.8818 72.4802 34.2403 72.8018 34.6747 72.8018Z" fill="white"/>
</svg>
