<svg width="100" height="100" viewBox="0 0 100 100" fill="none" xmlns="http://www.w3.org/2000/svg">
<circle cx="50" cy="50" r="50" fill="#37786A"/>
<path d="M49.9997 55.3059C51.2795 55.3059 52.3169 54.5125 52.3169 53.5338C52.3169 52.5551 51.2795 51.7617 49.9997 51.7617C48.72 51.7617 47.6826 52.5551 47.6826 53.5338C47.6826 54.5125 48.72 55.3059 49.9997 55.3059Z" fill="white"/>
<path d="M47.7013 63.3923V58.5191C41.5644 56.8592 41.5594 50.2043 47.7013 48.543C47.7013 47.6961 47.7013 42.1464 47.7013 41.2789C43.697 41.6204 39.9942 42.834 36.9616 44.7129C34.7758 44.7129 27.2389 44.7129 24.6051 44.7129V41.1758H20.0077V48.2289H32.7549C30.9389 50.2951 29.742 52.7048 29.365 55.3019C26.0759 55.3019 23.2826 55.3019 20 55.3019V58.8179H29.2394C29.2394 64.4881 29.1978 64.7387 29.3681 65.8922C26.0788 65.8922 23.2867 65.8922 20.0077 65.8922V76.4742H24.6051V69.4082H30.4225C31.2056 71.0982 32.3519 72.657 33.7909 74.0294C38.3946 70.5084 36.2942 72.1147 47.7013 63.3923Z" fill="white"/>
<path d="M70.7607 58.8179H80.0001V55.3019C76.7172 55.3019 73.923 55.3019 70.6351 55.3019C70.2581 52.7048 69.0612 50.2951 67.2452 48.2289H79.9924V41.1758H75.395V44.7129C72.7091 44.7129 65.2123 44.7129 63.0385 44.7129C60.0433 42.8571 56.3493 41.6244 52.2988 41.2789V48.543C58.4357 50.2029 58.4407 56.8578 52.2988 58.5191V63.3911C57.8665 67.6497 61.7938 70.6538 66.2092 74.0306C67.6482 72.6581 68.7945 71.0982 69.5776 69.4082H75.395V76.4742H79.9924V65.8922C76.7134 65.8922 73.9187 65.8922 70.632 65.8922C70.7977 64.7696 70.7607 64.5752 70.7607 58.8179Z" fill="white"/>
<path d="M50.0002 66.6094C48.0916 68.069 38.5489 75.3669 37.043 76.5187C44.638 81.1725 55.3993 81.1508 62.9589 76.5187C60.3445 74.5192 61.7738 75.6135 50.0002 66.6094Z" fill="white"/>
<path d="M61.5306 39.7907V35.8832C61.5306 33.0974 59.7912 30.4791 56.9148 28.8278V20H52.3173C52.3173 27.4357 52.3326 27.2444 52.3173 27.2444C50.822 27.011 49.2514 26.9997 47.6831 27.2444C47.6677 27.2444 47.6831 27.4326 47.6831 20H43.0856V28.8278C40.2091 30.4803 38.4697 33.0985 38.4697 35.8832V39.7907C45.7659 36.9377 54.3408 36.9793 61.5306 39.7907ZM52.2989 34.1182H47.7014C47.7014 33.0786 47.7014 32.2001 47.7014 30.6022H52.2989V34.1182Z" fill="white"/>
</svg>
