<svg width="100" height="100" viewBox="0 0 100 100" fill="none" xmlns="http://www.w3.org/2000/svg">
<path d="M73.5703 64.5156H75.7132V66.4511H73.5703V64.5156Z" fill="#37786A"/>
<path d="M69.2852 64.5156H71.428V66.4511H69.2852V64.5156Z" fill="#37786A"/>
<path d="M74.6429 29.6774H71.4286V23.871C71.4286 21.7361 69.5064 20 67.1429 20H32.8571C30.4936 20 28.5714 21.7361 28.5714 23.871V29.6774H25.3571C22.4032 29.6774 20 31.8481 20 34.5161V65.4839C20 68.1519 22.4032 70.3226 25.3571 70.3226H41.0139L39.5857 74.1935H37.1429C35.3707 74.1935 33.9286 75.4961 33.9286 77.0968V79.0323C33.9286 79.5674 34.4075 80 35 80H65C65.5925 80 66.0714 79.5674 66.0714 79.0323V77.0968C66.0714 75.4961 64.6293 74.1935 62.8571 74.1935H60.4143L58.9861 70.3226H74.6429C77.5968 70.3226 80 68.1519 80 65.4839V34.5161C80 31.8481 77.5968 29.6774 74.6429 29.6774ZM30.7143 23.871C30.7143 22.8035 31.6754 21.9355 32.8571 21.9355H67.1429C68.3246 21.9355 69.2857 22.8035 69.2857 23.871V49.0323C69.2857 50.0997 68.3246 50.9677 67.1429 50.9677H32.8571C31.6754 50.9677 30.7143 50.0997 30.7143 49.0323V23.871ZM32.8571 52.9032H67.1429C69.5064 52.9032 71.4286 51.1671 71.4286 49.0323V35.4839H73.5714V60.6452H26.4286V35.4839H28.5714V49.0323C28.5714 51.1671 30.4936 52.9032 32.8571 52.9032ZM63.9286 77.0968V78.0645H36.0714V77.0968C36.0714 76.5626 36.5514 76.129 37.1429 76.129H62.8571C63.4486 76.129 63.9286 76.5626 63.9286 77.0968ZM58.1568 74.1935H41.8432L43.2714 70.3226H56.7286L58.1568 74.1935ZM77.8571 65.4839C77.8571 67.0845 76.415 68.3871 74.6429 68.3871H25.3571C23.585 68.3871 22.1429 67.0845 22.1429 65.4839V34.5161C22.1429 32.9155 23.585 31.6129 25.3571 31.6129H28.5714V33.5484H25.3571C24.7646 33.5484 24.2857 33.9819 24.2857 34.5161V61.6129C24.2857 62.1481 24.7646 62.5806 25.3571 62.5806H74.6429C75.2354 62.5806 75.7143 62.1481 75.7143 61.6129V34.5161C75.7143 33.9819 75.2354 33.5484 74.6429 33.5484H71.4286V31.6129H74.6429C76.415 31.6129 77.8571 32.9155 77.8571 34.5161V65.4839Z" fill="#37786A"/>
<path d="M37.1417 49.0324H49.9989C50.5914 49.0324 51.0703 48.5988 51.0703 48.0646V43.2259H62.856C63.4485 43.2259 63.9275 42.7924 63.9275 42.2582V24.8388C63.9275 24.3046 63.4485 23.8711 62.856 23.8711H43.5703C42.9778 23.8711 42.4989 24.3046 42.4989 24.8388V35.484H37.1417C36.5492 35.484 36.0703 35.9175 36.0703 36.4517V48.0646C36.0703 48.5988 36.5492 49.0324 37.1417 49.0324ZM44.6417 25.8066H61.7846V41.2904H51.0703V36.4517C51.0703 35.9175 50.5914 35.484 49.9989 35.484H44.6417V25.8066ZM44.6417 37.4195H48.9275V41.2904H44.6417V37.4195ZM38.2132 37.4195H42.4989V42.2582C42.4989 42.7924 42.9778 43.2259 43.5703 43.2259H48.9275V47.0969H38.2132V37.4195Z" fill="#37786A"/>
<path d="M52.9017 35.2016L56.4299 32.0148V33.5496H58.5728V29.6787C58.5728 29.1445 58.0939 28.7109 57.5014 28.7109H53.2156V30.6464H54.9149L51.3867 33.8332L52.9017 35.2016Z" fill="#37786A"/>
<path d="M100 50C100 77.6142 77.6142 100 50 100C22.3858 100 0 77.6142 0 50C0 22.3858 22.3858 0 50 0C77.6142 0 100 22.3858 100 50ZM2.5 50C2.5 76.2335 23.7665 97.5 50 97.5C76.2335 97.5 97.5 76.2335 97.5 50C97.5 23.7665 76.2335 2.5 50 2.5C23.7665 2.5 2.5 23.7665 2.5 50Z" fill="#37786A"/>
</svg>
