<svg width="100" height="100" viewBox="0 0 100 100" fill="none" xmlns="http://www.w3.org/2000/svg">
<mask id="path-1-outside-1_175_49" maskUnits="userSpaceOnUse" x="19" y="19" width="62" height="62" fill="black">
<rect fill="white" x="19" y="19" width="62" height="62"/>
<path d="M62.53 40.2972C62.9307 40.2972 63.2558 39.9628 63.2558 39.5501C63.2558 39.1374 62.9307 38.803 62.53 38.803H59.4222C59.1702 35.4078 57.2204 32.4946 54.445 30.9657L54.7454 30.2594C54.9062 29.8815 54.7389 29.4408 54.3718 29.2753C54.0048 29.1097 53.5767 29.2819 53.4158 29.66L53.1156 30.3654C52.1393 30.0135 51.0915 29.8198 50 29.8198C45.0321 29.8198 40.95 33.7858 40.5778 38.803H37.47C37.0693 38.803 36.7442 39.1374 36.7442 39.5501C36.7442 39.9628 37.0693 40.2972 37.47 40.2972H47.7246C48.0326 41.2888 48.9358 42.0092 50 42.0092C51.0626 42.0092 51.9645 41.2888 52.2721 40.2972H62.53ZM50 37.0947C48.9363 37.0947 48.0334 37.8134 47.725 38.8031H46.3296C46.7298 37.0988 48.223 35.8287 50 35.8287C50.2595 35.8287 50.5128 35.8558 50.7576 35.9074L50.2468 37.1079C50.1656 37.0991 50.0833 37.0947 50 37.0947ZM51.575 37.7108L52.0967 36.4846C52.8723 37.0196 53.4448 37.8423 53.6704 38.803H52.2718C52.1388 38.376 51.8944 38.0009 51.575 37.7108ZM55.119 33.226L54.5729 33.7864C54.2889 34.0776 54.2882 34.5507 54.5712 34.8429C54.713 34.9894 54.8991 35.0626 55.0852 35.0626C55.2706 35.0626 55.456 34.99 55.5975 34.8447L56.1452 34.2827C57.1572 35.5318 57.8163 37.0928 57.9666 38.803H55.1512C54.8892 37.2328 53.9652 35.8928 52.6854 35.1007L53.8604 32.3391C54.3079 32.594 54.7292 32.8912 55.119 33.226ZM43.8546 34.2827L44.4022 34.8447C44.5439 34.99 44.7292 35.0626 44.9145 35.0626C45.1007 35.0626 45.2867 34.9894 45.4285 34.8429C45.7116 34.5507 45.7108 34.0776 45.4268 33.7864L44.8808 33.226C46.0944 32.1833 47.6116 31.5042 49.274 31.3495V32.1483C49.274 32.561 49.599 32.8954 49.9998 32.8954C50.4005 32.8954 50.7256 32.561 50.7256 32.1483V31.3495C51.3508 31.4077 51.9552 31.5406 52.531 31.7389L51.349 34.517C50.9183 34.3984 50.4663 34.3343 49.9999 34.3343C47.4195 34.3343 45.2711 36.2691 44.8485 38.803H42.0331C42.1834 37.0928 42.8426 35.5318 43.8546 34.2827ZM50 40.5149C49.4832 40.5149 49.0627 40.0821 49.0627 39.5501C49.0627 39.02 49.4832 38.5888 50 38.5888C50.1269 38.5888 50.2479 38.6152 50.3583 38.6626C50.3636 38.6653 50.3686 38.6682 50.374 38.6707C50.3766 38.6719 50.3792 38.6726 50.3819 38.6738C50.7067 38.8245 50.9337 39.1602 50.9337 39.5501C50.9339 40.0822 50.515 40.5149 50 40.5149ZM78.2489 64.383H72.4937V57.6436C72.4937 56.0638 71.2452 54.7786 69.7105 54.7786H59.4528V44.9177H61.5834C65.9808 44.9177 69.5583 41.2351 69.5583 36.7087C69.5583 32.1822 65.9808 28.4996 61.5834 28.4996C61.5718 28.4996 61.5603 28.4996 61.5487 28.4997C60.3027 25.4989 57.4216 23.5192 54.2177 23.5192C53.129 23.5192 52.0485 23.7505 51.0531 24.1925C49.6504 21.6225 46.9961 20 44.0985 20C39.7009 20 36.1234 23.6825 36.1234 28.2089C36.1234 28.4196 36.131 28.6296 36.1464 28.8377C32.8037 29.8569 30.4415 33.0634 30.4415 36.7085C30.4415 41.235 34.019 44.9176 38.4164 44.9176H40.547V54.7784H30.2896C28.7548 54.7784 27.5063 56.0636 27.5063 57.6434V64.3829H21.7511C20.7856 64.383 20 65.1917 20 66.1856V75.5253C20 76.5193 20.7856 77.3279 21.7511 77.3279H25.8867L25.8216 78.5056H24.5733C24.1725 78.5056 23.8475 78.8401 23.8475 79.2527C23.8475 79.6654 24.1725 79.9999 24.5733 79.9999H31.8876C32.2884 79.9999 32.6134 79.6654 32.6134 79.2527C32.6134 78.8401 32.2884 78.5056 31.8876 78.5056H30.6418L30.5754 77.3279H34.7131C35.6786 77.3279 36.4643 76.5193 36.4643 75.5253V66.1856C36.4643 65.1917 35.6788 64.383 34.7131 64.383H28.9579V57.6436C28.9579 56.8877 29.5552 56.2728 30.2896 56.2728H41.273C41.6738 56.2728 41.9988 55.9384 41.9988 55.5257V44.9177H58.0013V55.5257C58.0013 55.9384 58.3263 56.2728 58.7271 56.2728H69.7106C70.4448 56.2728 71.0422 56.8877 71.0422 57.6436V64.383H65.2871C64.3215 64.383 63.5358 65.1917 63.5358 66.1856V75.5253C63.5358 76.5193 64.3214 77.3279 65.2871 77.3279H69.4248L69.3583 78.5056H68.1125C67.7117 78.5056 67.3867 78.8401 67.3867 79.2527C67.3867 79.6654 67.7117 79.9999 68.1125 79.9999H75.4267C75.8275 79.9999 76.1525 79.6654 76.1525 79.2527C76.1525 78.8401 75.8275 78.5056 75.4267 78.5056H74.1776L74.1112 77.3279H78.2489C79.2143 77.3279 80 76.5193 80 75.5253V66.1856C80 65.1917 79.2144 64.383 78.2489 64.383ZM29.1876 78.5055H27.2755L27.3406 77.3278H29.1213L29.1876 78.5055ZM34.7131 75.8335H21.7511C21.5888 75.8335 21.4516 75.6923 21.4516 75.5252V74.8746H35.0126V75.5252C35.0126 75.6923 34.8755 75.8335 34.7131 75.8335ZM35.0126 66.1856V73.3804H21.4516V66.1856C21.4516 66.0156 21.5859 65.8773 21.7511 65.8773H34.7131C34.8755 65.8773 35.0126 66.0185 35.0126 66.1856ZM31.8932 36.7087C31.8932 33.5373 34.0781 30.7723 37.0884 30.1338C37.4696 30.053 37.7209 29.6769 37.6583 29.2816C37.6031 28.9344 37.575 28.5735 37.575 28.2091C37.575 24.5066 40.5014 21.4944 44.0985 21.4944C46.675 21.4944 49.0163 23.0631 50.0636 25.4908C50.1461 25.6819 50.3025 25.8287 50.495 25.8956C50.6875 25.9625 50.8983 25.9432 51.0765 25.8424C52.0486 25.2924 53.1054 25.0136 54.2178 25.0136C56.9864 25.0136 59.4603 26.821 60.3737 29.5111C60.4808 29.8261 60.7774 30.0304 61.1017 30.0104C61.2835 29.9994 61.4411 29.994 61.5835 29.994C65.1804 29.994 68.1068 33.0061 68.1068 36.7088C68.1068 40.4114 65.1805 43.4236 61.5835 43.4236H38.4165C34.8196 43.4235 31.8932 40.4112 31.8932 36.7087ZM65.2869 65.8773H78.2489C78.414 65.8773 78.5484 66.0156 78.5484 66.1856V73.3804H64.9874V66.1856C64.9874 66.0185 65.1245 65.8773 65.2869 65.8773ZM72.7235 78.5055H70.8124L70.8788 77.3278H72.657L72.7235 78.5055ZM78.2489 75.8335H65.2869C65.1245 75.8335 64.9873 75.6923 64.9873 75.5252V74.8746H78.5484V75.5252C78.5484 75.6923 78.4112 75.8335 78.2489 75.8335ZM60.1324 66.5242L58.4319 66.1538L57.9045 64.8405L58.8523 63.3379C59.0391 63.0419 58.999 62.6518 58.7564 62.4024L56.3869 59.9669C56.1444 59.7178 55.7658 59.677 55.4787 59.869L54.0194 60.8445L52.7463 60.3017L52.6222 59.7005V53.9785H54.8524C55.1375 53.9785 55.3964 53.8066 55.5138 53.5391C55.6313 53.2716 55.5857 52.9581 55.3971 52.7377L50.545 47.0653C50.4072 46.9042 50.2088 46.8119 50.0002 46.8119C49.7917 46.8119 49.5933 46.9042 49.4555 47.0653L44.6034 52.7377C44.4148 52.9581 44.3692 53.2715 44.4867 53.5391C44.6041 53.8067 44.8629 53.9785 45.1481 53.9785H47.3783V59.7005L47.2542 60.3017L45.9811 60.8445L44.5217 59.869C44.2342 59.677 43.8559 59.7178 43.6136 59.9669L41.2441 62.4024C41.0015 62.6518 40.9614 63.0419 41.1482 63.3379L42.096 64.8405L41.5685 66.1538L39.8681 66.5242C39.5327 66.5973 39.2925 66.9021 39.2925 67.2551V70.7037C39.2925 71.0567 39.5325 71.3616 39.8681 71.4347L41.5685 71.8049L42.0958 73.1178L41.1485 74.6167C40.9615 74.9126 41.0012 75.3028 41.2438 75.5525L43.6133 77.9915C43.8554 78.2409 44.2344 78.2819 44.5217 78.0898L45.9811 77.1143L47.2544 77.6573L47.6172 79.4086C47.6887 79.7534 47.9846 80 48.327 80H51.6737C52.0162 80 52.3121 79.7536 52.3835 79.4086L52.7463 77.6573L54.0196 77.1143L55.479 78.0898C55.7664 78.282 56.1453 78.241 56.3875 77.9915L58.757 75.5525C58.9995 75.3029 59.0392 74.9127 58.8522 74.6167L57.9049 73.1178L58.4322 71.8049L60.1326 71.4347C60.4681 71.3616 60.7082 71.0567 60.7082 70.7037V67.2551C60.7079 66.9021 60.4678 66.5973 60.1324 66.5242ZM59.2563 70.0981L57.7572 70.4246C57.5229 70.4756 57.3282 70.6422 57.2367 70.8701L56.4172 72.9102C56.3259 73.1376 56.3492 73.3969 56.4796 73.6031L57.3143 74.9239L55.7763 76.5071L54.4896 75.647C54.289 75.5129 54.0372 75.4892 53.8167 75.5834L51.8381 76.427C51.6175 76.5211 51.4558 76.721 51.406 76.9614L51.086 78.5056H48.9141L48.5941 76.9614C48.5443 76.721 48.3827 76.5211 48.162 76.427L46.1835 75.5834C45.9628 75.4893 45.7111 75.513 45.5105 75.647L44.2238 76.5071L42.6858 74.9239L43.5205 73.6031C43.6509 73.3968 43.6742 73.1376 43.5829 72.9102L42.7635 70.8701C42.6719 70.6423 42.4773 70.4756 42.2429 70.4246L40.7438 70.0981V67.8607L42.2429 67.5342C42.4773 67.4831 42.6719 67.3165 42.7635 67.0886L43.5829 65.0485C43.6741 64.8212 43.6509 64.5623 43.5208 64.3561L42.6856 63.032L44.2233 61.4514L45.5105 62.3117C45.7111 62.4457 45.9627 62.4694 46.1835 62.3754L48.162 61.5319C48.3828 61.4377 48.5445 61.2376 48.5942 60.997L48.8137 59.9346C48.8242 59.8836 48.8295 59.8314 48.8295 59.7792V53.2315C48.8295 52.8189 48.5045 52.4844 48.1037 52.4844H46.754L50 48.6896L53.246 52.4843H51.8963C51.4955 52.4843 51.1705 52.8187 51.1705 53.2314V59.7791C51.1705 59.8313 51.1758 59.8834 51.1863 59.9345L51.4058 60.9969C51.4555 61.2376 51.6172 61.4376 51.838 61.5317L53.8165 62.3752C54.0372 62.4693 54.2889 62.4456 54.4895 62.3116L55.7767 61.4513L57.3144 63.0318L56.4792 64.356C56.3491 64.5622 56.3259 64.8211 56.4171 65.0483L57.2365 67.0885C57.3281 67.3163 57.5227 67.483 57.7571 67.534L59.2562 67.8605V70.0981H59.2563ZM50 63.8254C47.2382 63.8254 44.9913 66.1383 44.9913 68.9812C44.9913 71.8222 47.2382 74.1334 50 74.1334C52.7599 74.1334 55.0054 71.8221 55.0054 68.9812C55.0054 66.1383 52.7599 63.8254 50 63.8254ZM50 72.6392C48.0386 72.6392 46.4429 70.9982 46.4429 68.9812C46.4429 66.9622 48.0386 65.3197 50 65.3197C51.9596 65.3197 53.5538 66.9622 53.5538 68.9812C53.5538 70.9981 51.9596 72.6392 50 72.6392Z"/>
</mask>
<path d="M62.53 40.2972C62.9307 40.2972 63.2558 39.9628 63.2558 39.5501C63.2558 39.1374 62.9307 38.803 62.53 38.803H59.4222C59.1702 35.4078 57.2204 32.4946 54.445 30.9657L54.7454 30.2594C54.9062 29.8815 54.7389 29.4408 54.3718 29.2753C54.0048 29.1097 53.5767 29.2819 53.4158 29.66L53.1156 30.3654C52.1393 30.0135 51.0915 29.8198 50 29.8198C45.0321 29.8198 40.95 33.7858 40.5778 38.803H37.47C37.0693 38.803 36.7442 39.1374 36.7442 39.5501C36.7442 39.9628 37.0693 40.2972 37.47 40.2972H47.7246C48.0326 41.2888 48.9358 42.0092 50 42.0092C51.0626 42.0092 51.9645 41.2888 52.2721 40.2972H62.53ZM50 37.0947C48.9363 37.0947 48.0334 37.8134 47.725 38.8031H46.3296C46.7298 37.0988 48.223 35.8287 50 35.8287C50.2595 35.8287 50.5128 35.8558 50.7576 35.9074L50.2468 37.1079C50.1656 37.0991 50.0833 37.0947 50 37.0947ZM51.575 37.7108L52.0967 36.4846C52.8723 37.0196 53.4448 37.8423 53.6704 38.803H52.2718C52.1388 38.376 51.8944 38.0009 51.575 37.7108ZM55.119 33.226L54.5729 33.7864C54.2889 34.0776 54.2882 34.5507 54.5712 34.8429C54.713 34.9894 54.8991 35.0626 55.0852 35.0626C55.2706 35.0626 55.456 34.99 55.5975 34.8447L56.1452 34.2827C57.1572 35.5318 57.8163 37.0928 57.9666 38.803H55.1512C54.8892 37.2328 53.9652 35.8928 52.6854 35.1007L53.8604 32.3391C54.3079 32.594 54.7292 32.8912 55.119 33.226ZM43.8546 34.2827L44.4022 34.8447C44.5439 34.99 44.7292 35.0626 44.9145 35.0626C45.1007 35.0626 45.2867 34.9894 45.4285 34.8429C45.7116 34.5507 45.7108 34.0776 45.4268 33.7864L44.8808 33.226C46.0944 32.1833 47.6116 31.5042 49.274 31.3495V32.1483C49.274 32.561 49.599 32.8954 49.9998 32.8954C50.4005 32.8954 50.7256 32.561 50.7256 32.1483V31.3495C51.3508 31.4077 51.9552 31.5406 52.531 31.7389L51.349 34.517C50.9183 34.3984 50.4663 34.3343 49.9999 34.3343C47.4195 34.3343 45.2711 36.2691 44.8485 38.803H42.0331C42.1834 37.0928 42.8426 35.5318 43.8546 34.2827ZM50 40.5149C49.4832 40.5149 49.0627 40.0821 49.0627 39.5501C49.0627 39.02 49.4832 38.5888 50 38.5888C50.1269 38.5888 50.2479 38.6152 50.3583 38.6626C50.3636 38.6653 50.3686 38.6682 50.374 38.6707C50.3766 38.6719 50.3792 38.6726 50.3819 38.6738C50.7067 38.8245 50.9337 39.1602 50.9337 39.5501C50.9339 40.0822 50.515 40.5149 50 40.5149ZM78.2489 64.383H72.4937V57.6436C72.4937 56.0638 71.2452 54.7786 69.7105 54.7786H59.4528V44.9177H61.5834C65.9808 44.9177 69.5583 41.2351 69.5583 36.7087C69.5583 32.1822 65.9808 28.4996 61.5834 28.4996C61.5718 28.4996 61.5603 28.4996 61.5487 28.4997C60.3027 25.4989 57.4216 23.5192 54.2177 23.5192C53.129 23.5192 52.0485 23.7505 51.0531 24.1925C49.6504 21.6225 46.9961 20 44.0985 20C39.7009 20 36.1234 23.6825 36.1234 28.2089C36.1234 28.4196 36.131 28.6296 36.1464 28.8377C32.8037 29.8569 30.4415 33.0634 30.4415 36.7085C30.4415 41.235 34.019 44.9176 38.4164 44.9176H40.547V54.7784H30.2896C28.7548 54.7784 27.5063 56.0636 27.5063 57.6434V64.3829H21.7511C20.7856 64.383 20 65.1917 20 66.1856V75.5253C20 76.5193 20.7856 77.3279 21.7511 77.3279H25.8867L25.8216 78.5056H24.5733C24.1725 78.5056 23.8475 78.8401 23.8475 79.2527C23.8475 79.6654 24.1725 79.9999 24.5733 79.9999H31.8876C32.2884 79.9999 32.6134 79.6654 32.6134 79.2527C32.6134 78.8401 32.2884 78.5056 31.8876 78.5056H30.6418L30.5754 77.3279H34.7131C35.6786 77.3279 36.4643 76.5193 36.4643 75.5253V66.1856C36.4643 65.1917 35.6788 64.383 34.7131 64.383H28.9579V57.6436C28.9579 56.8877 29.5552 56.2728 30.2896 56.2728H41.273C41.6738 56.2728 41.9988 55.9384 41.9988 55.5257V44.9177H58.0013V55.5257C58.0013 55.9384 58.3263 56.2728 58.7271 56.2728H69.7106C70.4448 56.2728 71.0422 56.8877 71.0422 57.6436V64.383H65.2871C64.3215 64.383 63.5358 65.1917 63.5358 66.1856V75.5253C63.5358 76.5193 64.3214 77.3279 65.2871 77.3279H69.4248L69.3583 78.5056H68.1125C67.7117 78.5056 67.3867 78.8401 67.3867 79.2527C67.3867 79.6654 67.7117 79.9999 68.1125 79.9999H75.4267C75.8275 79.9999 76.1525 79.6654 76.1525 79.2527C76.1525 78.8401 75.8275 78.5056 75.4267 78.5056H74.1776L74.1112 77.3279H78.2489C79.2143 77.3279 80 76.5193 80 75.5253V66.1856C80 65.1917 79.2144 64.383 78.2489 64.383ZM29.1876 78.5055H27.2755L27.3406 77.3278H29.1213L29.1876 78.5055ZM34.7131 75.8335H21.7511C21.5888 75.8335 21.4516 75.6923 21.4516 75.5252V74.8746H35.0126V75.5252C35.0126 75.6923 34.8755 75.8335 34.7131 75.8335ZM35.0126 66.1856V73.3804H21.4516V66.1856C21.4516 66.0156 21.5859 65.8773 21.7511 65.8773H34.7131C34.8755 65.8773 35.0126 66.0185 35.0126 66.1856ZM31.8932 36.7087C31.8932 33.5373 34.0781 30.7723 37.0884 30.1338C37.4696 30.053 37.7209 29.6769 37.6583 29.2816C37.6031 28.9344 37.575 28.5735 37.575 28.2091C37.575 24.5066 40.5014 21.4944 44.0985 21.4944C46.675 21.4944 49.0163 23.0631 50.0636 25.4908C50.1461 25.6819 50.3025 25.8287 50.495 25.8956C50.6875 25.9625 50.8983 25.9432 51.0765 25.8424C52.0486 25.2924 53.1054 25.0136 54.2178 25.0136C56.9864 25.0136 59.4603 26.821 60.3737 29.5111C60.4808 29.8261 60.7774 30.0304 61.1017 30.0104C61.2835 29.9994 61.4411 29.994 61.5835 29.994C65.1804 29.994 68.1068 33.0061 68.1068 36.7088C68.1068 40.4114 65.1805 43.4236 61.5835 43.4236H38.4165C34.8196 43.4235 31.8932 40.4112 31.8932 36.7087ZM65.2869 65.8773H78.2489C78.414 65.8773 78.5484 66.0156 78.5484 66.1856V73.3804H64.9874V66.1856C64.9874 66.0185 65.1245 65.8773 65.2869 65.8773ZM72.7235 78.5055H70.8124L70.8788 77.3278H72.657L72.7235 78.5055ZM78.2489 75.8335H65.2869C65.1245 75.8335 64.9873 75.6923 64.9873 75.5252V74.8746H78.5484V75.5252C78.5484 75.6923 78.4112 75.8335 78.2489 75.8335ZM60.1324 66.5242L58.4319 66.1538L57.9045 64.8405L58.8523 63.3379C59.0391 63.0419 58.999 62.6518 58.7564 62.4024L56.3869 59.9669C56.1444 59.7178 55.7658 59.677 55.4787 59.869L54.0194 60.8445L52.7463 60.3017L52.6222 59.7005V53.9785H54.8524C55.1375 53.9785 55.3964 53.8066 55.5138 53.5391C55.6313 53.2716 55.5857 52.9581 55.3971 52.7377L50.545 47.0653C50.4072 46.9042 50.2088 46.8119 50.0002 46.8119C49.7917 46.8119 49.5933 46.9042 49.4555 47.0653L44.6034 52.7377C44.4148 52.9581 44.3692 53.2715 44.4867 53.5391C44.6041 53.8067 44.8629 53.9785 45.1481 53.9785H47.3783V59.7005L47.2542 60.3017L45.9811 60.8445L44.5217 59.869C44.2342 59.677 43.8559 59.7178 43.6136 59.9669L41.2441 62.4024C41.0015 62.6518 40.9614 63.0419 41.1482 63.3379L42.096 64.8405L41.5685 66.1538L39.8681 66.5242C39.5327 66.5973 39.2925 66.9021 39.2925 67.2551V70.7037C39.2925 71.0567 39.5325 71.3616 39.8681 71.4347L41.5685 71.8049L42.0958 73.1178L41.1485 74.6167C40.9615 74.9126 41.0012 75.3028 41.2438 75.5525L43.6133 77.9915C43.8554 78.2409 44.2344 78.2819 44.5217 78.0898L45.9811 77.1143L47.2544 77.6573L47.6172 79.4086C47.6887 79.7534 47.9846 80 48.327 80H51.6737C52.0162 80 52.3121 79.7536 52.3835 79.4086L52.7463 77.6573L54.0196 77.1143L55.479 78.0898C55.7664 78.282 56.1453 78.241 56.3875 77.9915L58.757 75.5525C58.9995 75.3029 59.0392 74.9127 58.8522 74.6167L57.9049 73.1178L58.4322 71.8049L60.1326 71.4347C60.4681 71.3616 60.7082 71.0567 60.7082 70.7037V67.2551C60.7079 66.9021 60.4678 66.5973 60.1324 66.5242ZM59.2563 70.0981L57.7572 70.4246C57.5229 70.4756 57.3282 70.6422 57.2367 70.8701L56.4172 72.9102C56.3259 73.1376 56.3492 73.3969 56.4796 73.6031L57.3143 74.9239L55.7763 76.5071L54.4896 75.647C54.289 75.5129 54.0372 75.4892 53.8167 75.5834L51.8381 76.427C51.6175 76.5211 51.4558 76.721 51.406 76.9614L51.086 78.5056H48.9141L48.5941 76.9614C48.5443 76.721 48.3827 76.5211 48.162 76.427L46.1835 75.5834C45.9628 75.4893 45.7111 75.513 45.5105 75.647L44.2238 76.5071L42.6858 74.9239L43.5205 73.6031C43.6509 73.3968 43.6742 73.1376 43.5829 72.9102L42.7635 70.8701C42.6719 70.6423 42.4773 70.4756 42.2429 70.4246L40.7438 70.0981V67.8607L42.2429 67.5342C42.4773 67.4831 42.6719 67.3165 42.7635 67.0886L43.5829 65.0485C43.6741 64.8212 43.6509 64.5623 43.5208 64.3561L42.6856 63.032L44.2233 61.4514L45.5105 62.3117C45.7111 62.4457 45.9627 62.4694 46.1835 62.3754L48.162 61.5319C48.3828 61.4377 48.5445 61.2376 48.5942 60.997L48.8137 59.9346C48.8242 59.8836 48.8295 59.8314 48.8295 59.7792V53.2315C48.8295 52.8189 48.5045 52.4844 48.1037 52.4844H46.754L50 48.6896L53.246 52.4843H51.8963C51.4955 52.4843 51.1705 52.8187 51.1705 53.2314V59.7791C51.1705 59.8313 51.1758 59.8834 51.1863 59.9345L51.4058 60.9969C51.4555 61.2376 51.6172 61.4376 51.838 61.5317L53.8165 62.3752C54.0372 62.4693 54.2889 62.4456 54.4895 62.3116L55.7767 61.4513L57.3144 63.0318L56.4792 64.356C56.3491 64.5622 56.3259 64.8211 56.4171 65.0483L57.2365 67.0885C57.3281 67.3163 57.5227 67.483 57.7571 67.534L59.2562 67.8605V70.0981H59.2563ZM50 63.8254C47.2382 63.8254 44.9913 66.1383 44.9913 68.9812C44.9913 71.8222 47.2382 74.1334 50 74.1334C52.7599 74.1334 55.0054 71.8221 55.0054 68.9812C55.0054 66.1383 52.7599 63.8254 50 63.8254ZM50 72.6392C48.0386 72.6392 46.4429 70.9982 46.4429 68.9812C46.4429 66.9622 48.0386 65.3197 50 65.3197C51.9596 65.3197 53.5538 66.9622 53.5538 68.9812C53.5538 70.9981 51.9596 72.6392 50 72.6392Z" fill="#37786A"/>
<path d="M62.53 40.2972C62.9307 40.2972 63.2558 39.9628 63.2558 39.5501C63.2558 39.1374 62.9307 38.803 62.53 38.803H59.4222C59.1702 35.4078 57.2204 32.4946 54.445 30.9657L54.7454 30.2594C54.9062 29.8815 54.7389 29.4408 54.3718 29.2753C54.0048 29.1097 53.5767 29.2819 53.4158 29.66L53.1156 30.3654C52.1393 30.0135 51.0915 29.8198 50 29.8198C45.0321 29.8198 40.95 33.7858 40.5778 38.803H37.47C37.0693 38.803 36.7442 39.1374 36.7442 39.5501C36.7442 39.9628 37.0693 40.2972 37.47 40.2972H47.7246C48.0326 41.2888 48.9358 42.0092 50 42.0092C51.0626 42.0092 51.9645 41.2888 52.2721 40.2972H62.53ZM50 37.0947C48.9363 37.0947 48.0334 37.8134 47.725 38.8031H46.3296C46.7298 37.0988 48.223 35.8287 50 35.8287C50.2595 35.8287 50.5128 35.8558 50.7576 35.9074L50.2468 37.1079C50.1656 37.0991 50.0833 37.0947 50 37.0947ZM51.575 37.7108L52.0967 36.4846C52.8723 37.0196 53.4448 37.8423 53.6704 38.803H52.2718C52.1388 38.376 51.8944 38.0009 51.575 37.7108ZM55.119 33.226L54.5729 33.7864C54.2889 34.0776 54.2882 34.5507 54.5712 34.8429C54.713 34.9894 54.8991 35.0626 55.0852 35.0626C55.2706 35.0626 55.456 34.99 55.5975 34.8447L56.1452 34.2827C57.1572 35.5318 57.8163 37.0928 57.9666 38.803H55.1512C54.8892 37.2328 53.9652 35.8928 52.6854 35.1007L53.8604 32.3391C54.3079 32.594 54.7292 32.8912 55.119 33.226ZM43.8546 34.2827L44.4022 34.8447C44.5439 34.99 44.7292 35.0626 44.9145 35.0626C45.1007 35.0626 45.2867 34.9894 45.4285 34.8429C45.7116 34.5507 45.7108 34.0776 45.4268 33.7864L44.8808 33.226C46.0944 32.1833 47.6116 31.5042 49.274 31.3495V32.1483C49.274 32.561 49.599 32.8954 49.9998 32.8954C50.4005 32.8954 50.7256 32.561 50.7256 32.1483V31.3495C51.3508 31.4077 51.9552 31.5406 52.531 31.7389L51.349 34.517C50.9183 34.3984 50.4663 34.3343 49.9999 34.3343C47.4195 34.3343 45.2711 36.2691 44.8485 38.803H42.0331C42.1834 37.0928 42.8426 35.5318 43.8546 34.2827ZM50 40.5149C49.4832 40.5149 49.0627 40.0821 49.0627 39.5501C49.0627 39.02 49.4832 38.5888 50 38.5888C50.1269 38.5888 50.2479 38.6152 50.3583 38.6626C50.3636 38.6653 50.3686 38.6682 50.374 38.6707C50.3766 38.6719 50.3792 38.6726 50.3819 38.6738C50.7067 38.8245 50.9337 39.1602 50.9337 39.5501C50.9339 40.0822 50.515 40.5149 50 40.5149ZM78.2489 64.383H72.4937V57.6436C72.4937 56.0638 71.2452 54.7786 69.7105 54.7786H59.4528V44.9177H61.5834C65.9808 44.9177 69.5583 41.2351 69.5583 36.7087C69.5583 32.1822 65.9808 28.4996 61.5834 28.4996C61.5718 28.4996 61.5603 28.4996 61.5487 28.4997C60.3027 25.4989 57.4216 23.5192 54.2177 23.5192C53.129 23.5192 52.0485 23.7505 51.0531 24.1925C49.6504 21.6225 46.9961 20 44.0985 20C39.7009 20 36.1234 23.6825 36.1234 28.2089C36.1234 28.4196 36.131 28.6296 36.1464 28.8377C32.8037 29.8569 30.4415 33.0634 30.4415 36.7085C30.4415 41.235 34.019 44.9176 38.4164 44.9176H40.547V54.7784H30.2896C28.7548 54.7784 27.5063 56.0636 27.5063 57.6434V64.3829H21.7511C20.7856 64.383 20 65.1917 20 66.1856V75.5253C20 76.5193 20.7856 77.3279 21.7511 77.3279H25.8867L25.8216 78.5056H24.5733C24.1725 78.5056 23.8475 78.8401 23.8475 79.2527C23.8475 79.6654 24.1725 79.9999 24.5733 79.9999H31.8876C32.2884 79.9999 32.6134 79.6654 32.6134 79.2527C32.6134 78.8401 32.2884 78.5056 31.8876 78.5056H30.6418L30.5754 77.3279H34.7131C35.6786 77.3279 36.4643 76.5193 36.4643 75.5253V66.1856C36.4643 65.1917 35.6788 64.383 34.7131 64.383H28.9579V57.6436C28.9579 56.8877 29.5552 56.2728 30.2896 56.2728H41.273C41.6738 56.2728 41.9988 55.9384 41.9988 55.5257V44.9177H58.0013V55.5257C58.0013 55.9384 58.3263 56.2728 58.7271 56.2728H69.7106C70.4448 56.2728 71.0422 56.8877 71.0422 57.6436V64.383H65.2871C64.3215 64.383 63.5358 65.1917 63.5358 66.1856V75.5253C63.5358 76.5193 64.3214 77.3279 65.2871 77.3279H69.4248L69.3583 78.5056H68.1125C67.7117 78.5056 67.3867 78.8401 67.3867 79.2527C67.3867 79.6654 67.7117 79.9999 68.1125 79.9999H75.4267C75.8275 79.9999 76.1525 79.6654 76.1525 79.2527C76.1525 78.8401 75.8275 78.5056 75.4267 78.5056H74.1776L74.1112 77.3279H78.2489C79.2143 77.3279 80 76.5193 80 75.5253V66.1856C80 65.1917 79.2144 64.383 78.2489 64.383ZM29.1876 78.5055H27.2755L27.3406 77.3278H29.1213L29.1876 78.5055ZM34.7131 75.8335H21.7511C21.5888 75.8335 21.4516 75.6923 21.4516 75.5252V74.8746H35.0126V75.5252C35.0126 75.6923 34.8755 75.8335 34.7131 75.8335ZM35.0126 66.1856V73.3804H21.4516V66.1856C21.4516 66.0156 21.5859 65.8773 21.7511 65.8773H34.7131C34.8755 65.8773 35.0126 66.0185 35.0126 66.1856ZM31.8932 36.7087C31.8932 33.5373 34.0781 30.7723 37.0884 30.1338C37.4696 30.053 37.7209 29.6769 37.6583 29.2816C37.6031 28.9344 37.575 28.5735 37.575 28.2091C37.575 24.5066 40.5014 21.4944 44.0985 21.4944C46.675 21.4944 49.0163 23.0631 50.0636 25.4908C50.1461 25.6819 50.3025 25.8287 50.495 25.8956C50.6875 25.9625 50.8983 25.9432 51.0765 25.8424C52.0486 25.2924 53.1054 25.0136 54.2178 25.0136C56.9864 25.0136 59.4603 26.821 60.3737 29.5111C60.4808 29.8261 60.7774 30.0304 61.1017 30.0104C61.2835 29.9994 61.4411 29.994 61.5835 29.994C65.1804 29.994 68.1068 33.0061 68.1068 36.7088C68.1068 40.4114 65.1805 43.4236 61.5835 43.4236H38.4165C34.8196 43.4235 31.8932 40.4112 31.8932 36.7087ZM65.2869 65.8773H78.2489C78.414 65.8773 78.5484 66.0156 78.5484 66.1856V73.3804H64.9874V66.1856C64.9874 66.0185 65.1245 65.8773 65.2869 65.8773ZM72.7235 78.5055H70.8124L70.8788 77.3278H72.657L72.7235 78.5055ZM78.2489 75.8335H65.2869C65.1245 75.8335 64.9873 75.6923 64.9873 75.5252V74.8746H78.5484V75.5252C78.5484 75.6923 78.4112 75.8335 78.2489 75.8335ZM60.1324 66.5242L58.4319 66.1538L57.9045 64.8405L58.8523 63.3379C59.0391 63.0419 58.999 62.6518 58.7564 62.4024L56.3869 59.9669C56.1444 59.7178 55.7658 59.677 55.4787 59.869L54.0194 60.8445L52.7463 60.3017L52.6222 59.7005V53.9785H54.8524C55.1375 53.9785 55.3964 53.8066 55.5138 53.5391C55.6313 53.2716 55.5857 52.9581 55.3971 52.7377L50.545 47.0653C50.4072 46.9042 50.2088 46.8119 50.0002 46.8119C49.7917 46.8119 49.5933 46.9042 49.4555 47.0653L44.6034 52.7377C44.4148 52.9581 44.3692 53.2715 44.4867 53.5391C44.6041 53.8067 44.8629 53.9785 45.1481 53.9785H47.3783V59.7005L47.2542 60.3017L45.9811 60.8445L44.5217 59.869C44.2342 59.677 43.8559 59.7178 43.6136 59.9669L41.2441 62.4024C41.0015 62.6518 40.9614 63.0419 41.1482 63.3379L42.096 64.8405L41.5685 66.1538L39.8681 66.5242C39.5327 66.5973 39.2925 66.9021 39.2925 67.2551V70.7037C39.2925 71.0567 39.5325 71.3616 39.8681 71.4347L41.5685 71.8049L42.0958 73.1178L41.1485 74.6167C40.9615 74.9126 41.0012 75.3028 41.2438 75.5525L43.6133 77.9915C43.8554 78.2409 44.2344 78.2819 44.5217 78.0898L45.9811 77.1143L47.2544 77.6573L47.6172 79.4086C47.6887 79.7534 47.9846 80 48.327 80H51.6737C52.0162 80 52.3121 79.7536 52.3835 79.4086L52.7463 77.6573L54.0196 77.1143L55.479 78.0898C55.7664 78.282 56.1453 78.241 56.3875 77.9915L58.757 75.5525C58.9995 75.3029 59.0392 74.9127 58.8522 74.6167L57.9049 73.1178L58.4322 71.8049L60.1326 71.4347C60.4681 71.3616 60.7082 71.0567 60.7082 70.7037V67.2551C60.7079 66.9021 60.4678 66.5973 60.1324 66.5242ZM59.2563 70.0981L57.7572 70.4246C57.5229 70.4756 57.3282 70.6422 57.2367 70.8701L56.4172 72.9102C56.3259 73.1376 56.3492 73.3969 56.4796 73.6031L57.3143 74.9239L55.7763 76.5071L54.4896 75.647C54.289 75.5129 54.0372 75.4892 53.8167 75.5834L51.8381 76.427C51.6175 76.5211 51.4558 76.721 51.406 76.9614L51.086 78.5056H48.9141L48.5941 76.9614C48.5443 76.721 48.3827 76.5211 48.162 76.427L46.1835 75.5834C45.9628 75.4893 45.7111 75.513 45.5105 75.647L44.2238 76.5071L42.6858 74.9239L43.5205 73.6031C43.6509 73.3968 43.6742 73.1376 43.5829 72.9102L42.7635 70.8701C42.6719 70.6423 42.4773 70.4756 42.2429 70.4246L40.7438 70.0981V67.8607L42.2429 67.5342C42.4773 67.4831 42.6719 67.3165 42.7635 67.0886L43.5829 65.0485C43.6741 64.8212 43.6509 64.5623 43.5208 64.3561L42.6856 63.032L44.2233 61.4514L45.5105 62.3117C45.7111 62.4457 45.9627 62.4694 46.1835 62.3754L48.162 61.5319C48.3828 61.4377 48.5445 61.2376 48.5942 60.997L48.8137 59.9346C48.8242 59.8836 48.8295 59.8314 48.8295 59.7792V53.2315C48.8295 52.8189 48.5045 52.4844 48.1037 52.4844H46.754L50 48.6896L53.246 52.4843H51.8963C51.4955 52.4843 51.1705 52.8187 51.1705 53.2314V59.7791C51.1705 59.8313 51.1758 59.8834 51.1863 59.9345L51.4058 60.9969C51.4555 61.2376 51.6172 61.4376 51.838 61.5317L53.8165 62.3752C54.0372 62.4693 54.2889 62.4456 54.4895 62.3116L55.7767 61.4513L57.3144 63.0318L56.4792 64.356C56.3491 64.5622 56.3259 64.8211 56.4171 65.0483L57.2365 67.0885C57.3281 67.3163 57.5227 67.483 57.7571 67.534L59.2562 67.8605V70.0981H59.2563ZM50 63.8254C47.2382 63.8254 44.9913 66.1383 44.9913 68.9812C44.9913 71.8222 47.2382 74.1334 50 74.1334C52.7599 74.1334 55.0054 71.8221 55.0054 68.9812C55.0054 66.1383 52.7599 63.8254 50 63.8254ZM50 72.6392C48.0386 72.6392 46.4429 70.9982 46.4429 68.9812C46.4429 66.9622 48.0386 65.3197 50 65.3197C51.9596 65.3197 53.5538 66.9622 53.5538 68.9812C53.5538 70.9981 51.9596 72.6392 50 72.6392Z" stroke="#37786A" stroke-width="0.6" mask="url(#path-1-outside-1_175_49)"/>
<path d="M100 50C100 77.6142 77.6142 100 50 100C22.3858 100 0 77.6142 0 50C0 22.3858 22.3858 0 50 0C77.6142 0 100 22.3858 100 50ZM2.5 50C2.5 76.2335 23.7665 97.5 50 97.5C76.2335 97.5 97.5 76.2335 97.5 50C97.5 23.7665 76.2335 2.5 50 2.5C23.7665 2.5 2.5 23.7665 2.5 50Z" fill="#37786A"/>
</svg>
