<svg width="100" height="100" viewBox="0 0 100 100" fill="none" xmlns="http://www.w3.org/2000/svg">
<circle cx="50" cy="50" r="50" fill="#37786A"/>
<path fill-rule="evenodd" clip-rule="evenodd" d="M67.4271 35.6392C68.1083 35.6392 68.7755 35.4549 69.3507 35.1078C69.9259 34.7607 70.3855 34.2651 70.6757 33.6788C70.966 33.0925 71.075 32.4398 70.99 31.7968C70.905 31.1539 70.6294 30.5472 70.1956 30.0475C69.7618 29.5479 69.1875 29.176 68.5398 28.9753C67.8921 28.7745 67.1978 28.7531 66.5378 28.9136C65.8779 29.0742 65.2795 29.41 64.8127 29.8819C64.3458 30.3537 64.0296 30.9422 63.9011 31.5786H55.7944C55.4302 31.579 55.0811 31.7167 54.8235 31.9616C54.5659 32.2065 54.4209 32.5386 54.4202 32.885V38.2409C54.4225 38.4109 54.4951 38.5731 54.6222 38.6924C54.7493 38.8118 54.9207 38.8788 55.0993 38.8788C55.278 38.8788 55.4494 38.8118 55.5765 38.6924C55.7036 38.5731 55.7762 38.4109 55.7785 38.2409V32.885C55.7783 32.8829 55.7785 32.8807 55.7792 32.8786C55.7799 32.8766 55.781 32.8747 55.7825 32.873C55.784 32.8714 55.7858 32.8701 55.7879 32.8692C55.7899 32.8683 55.7921 32.8678 55.7944 32.8677H63.9011C64.0602 33.6468 64.4988 34.3492 65.1419 34.8547C65.7851 35.3602 66.5928 35.6375 67.4271 35.6392ZM59.6986 44.4596C59.6093 44.4599 59.5208 44.4435 59.4382 44.4113C59.3556 44.3791 59.2805 44.3317 59.2172 44.2718C59.1539 44.212 59.1036 44.1408 59.0692 44.0624C59.0348 43.9841 59.017 43.9 59.0168 43.8151V40.3883C59.0175 40.0419 59.1626 39.7098 59.4202 39.4649C59.6778 39.2201 60.0269 39.0823 60.3911 39.0819H68.5031C68.6717 38.2473 69.1613 37.5024 69.8762 36.9927C70.5912 36.4831 71.4802 36.2453 72.3696 36.3258C73.259 36.4064 74.0849 36.7995 74.6859 37.4283C75.287 38.0571 75.6201 38.8765 75.6201 39.7265C75.6201 40.5764 75.287 41.3958 74.6859 42.0247C74.0849 42.6535 73.259 43.0466 72.3696 43.1271C71.4802 43.2077 70.5912 42.9699 69.8762 42.4602C69.1613 41.9506 68.6717 41.2057 68.5031 40.371H60.3911C60.3869 40.372 60.3831 40.3742 60.3802 40.3773C60.3773 40.3803 60.3755 40.3842 60.3751 40.3883V43.8151C60.3751 43.9858 60.3038 44.1496 60.177 44.2705C60.0502 44.3913 59.8781 44.4593 59.6986 44.4596ZM41.3013 44.4596C41.4808 44.4593 41.6529 44.3913 41.7797 44.2705C41.9065 44.1496 41.9778 43.9858 41.9778 43.8151V40.3883C41.9783 40.0424 41.8344 39.7104 41.5777 39.4654C41.321 39.2204 40.9725 39.0825 40.6089 39.0818H32.4968C32.3282 38.2472 31.8386 37.5023 31.1237 36.9926C30.4087 36.483 29.5197 36.2452 28.6303 36.3257C27.7409 36.4063 26.915 36.7994 26.314 37.4282C25.7129 38.057 25.3798 38.8764 25.3798 39.7264C25.3798 40.5763 25.7129 41.3957 26.314 42.0246C26.915 42.6534 27.7409 43.0465 28.6303 43.127C29.5197 43.2076 30.4087 42.9698 31.1237 42.4601C31.8386 41.9505 32.3282 41.2056 32.4968 40.3709H40.6089C40.6131 40.3719 40.6169 40.3741 40.6197 40.3772C40.6226 40.3803 40.6243 40.3841 40.6248 40.3882V43.815C40.6248 43.9857 40.6961 44.1495 40.8229 44.2704C40.9497 44.3912 41.1218 44.4593 41.3013 44.4596ZM45.898 38.8855C45.7185 38.8852 45.5464 38.8172 45.4196 38.6964C45.2928 38.5755 45.2215 38.4117 45.2215 38.2409V32.885C45.2218 32.8829 45.2215 32.8807 45.2208 32.8786C45.2201 32.8766 45.219 32.8747 45.2175 32.873C45.216 32.8714 45.2142 32.8701 45.2121 32.8692C45.2101 32.8683 45.2079 32.8678 45.2056 32.8677H37.0982C36.9297 33.7024 36.4401 34.4473 35.7251 34.9569C35.0101 35.4666 34.1211 35.7044 33.2317 35.6238C32.3423 35.5433 31.5164 35.1502 30.9154 34.5214C30.3143 33.8925 29.9813 33.0731 29.9813 32.2232C29.9813 31.3732 30.3143 30.5538 30.9154 29.925C31.5164 29.2962 32.3423 28.9031 33.2317 28.8225C34.1211 28.742 35.0101 28.9798 35.7251 29.4894C36.4401 29.9991 36.9297 30.744 37.0982 31.5786H45.2056C45.5698 31.579 45.9189 31.7167 46.1765 31.9616C46.4341 32.2065 46.5791 32.5386 46.5798 32.885V38.2409C46.5796 38.3259 46.5618 38.41 46.5274 38.4883C46.4931 38.5667 46.4428 38.6379 46.3794 38.6978C46.3161 38.7576 46.241 38.805 46.1584 38.8372C46.0758 38.8695 45.9873 38.8858 45.898 38.8855ZM50.4997 33.3124C50.6792 33.3122 50.8512 33.2442 50.9781 33.1233C51.1049 33.0025 51.1761 32.8387 51.1761 32.6679V29.7696C52.0535 29.6094 52.8365 29.1439 53.3723 28.4638C53.9081 27.7838 54.1581 26.9382 54.0736 26.0921C53.9891 25.2461 53.576 24.4604 52.9151 23.8886C52.2542 23.3168 51.393 23 50.4997 23C49.6063 23 48.7451 23.3168 48.0842 23.8886C47.4233 24.4604 47.0103 25.2461 46.9257 26.0921C46.8412 26.9382 47.0912 27.7838 47.627 28.4638C48.1628 29.1439 48.9459 29.6094 49.8232 29.7696V32.6678C49.8232 32.8386 49.8944 33.0024 50.0213 33.1232C50.1481 33.244 50.3202 33.3122 50.4997 33.3124ZM44.8594 49.4836H39.9751L50.4997 36.7286L61.0246 49.4836H56.1406C55.9611 49.4839 55.789 49.5519 55.6622 49.6727C55.5354 49.7936 55.4641 49.9574 55.4641 50.1281V62.5235C53.9006 63.1816 52.2097 63.5216 50.4999 63.5216C48.7902 63.5216 47.0993 63.1816 45.5358 62.5235V50.1282C45.5358 49.9575 45.4645 49.7937 45.3377 49.6729C45.2109 49.552 45.0389 49.4839 44.8594 49.4836ZM77.3182 51.195C77.4075 51.1947 77.496 51.2111 77.5786 51.2433C77.6612 51.2755 77.7363 51.3229 77.7997 51.3828C77.863 51.4426 77.9133 51.5138 77.9477 51.5922C77.982 51.6706 77.9998 51.7546 78 51.8396V55.6434C77.9994 56.0501 77.8427 56.4426 77.5592 56.7471C77.2757 57.0515 76.8851 57.2469 76.4607 57.2965L72.2049 57.794C71.738 59.3373 71.0894 60.8256 70.2715 62.2305L72.9137 65.4456C73.1769 65.7661 73.3076 66.1672 73.2811 66.5732C73.2546 66.9791 73.0727 67.3618 72.7698 67.6488L67.1186 73.0274C66.816 73.3145 66.4136 73.4867 65.987 73.5116C65.5604 73.5365 65.1389 73.4125 64.8016 73.1628L61.4247 70.6502C59.9465 71.4271 58.3814 72.044 56.7588 72.4893L56.2368 76.538C56.1841 76.941 55.9786 77.3119 55.6589 77.5811C55.3392 77.8502 54.9273 77.9992 54.5004 78H46.4998C46.0727 77.9998 45.6605 77.851 45.3407 77.5817C45.0208 77.3124 44.8156 76.9412 44.7635 76.5379L44.2416 72.4892C42.6187 72.0448 41.0535 71.4279 39.5757 70.6501L36.1987 73.1627C35.8615 73.4124 35.44 73.5365 35.0134 73.5115C34.5868 73.4866 34.1845 73.3144 33.8818 73.0273L28.2304 67.6487C27.9275 67.3617 27.7456 66.979 27.7191 66.5731C27.6927 66.1671 27.8234 65.766 28.0866 65.4455L30.7289 62.2304C29.909 60.8264 29.2603 59.3379 28.7954 57.7939L24.5396 57.2964C24.1152 57.2469 23.7245 57.0515 23.4409 56.747C23.1574 56.4426 23.0006 56.05 23 55.6433V51.8395C23 51.6687 23.0712 51.5049 23.198 51.3841C23.3248 51.2633 23.4969 51.1952 23.6764 51.1949H37.541C37.6303 51.1946 37.7187 51.211 37.8013 51.2432C37.8839 51.2754 37.9591 51.3228 38.0224 51.3827C38.0857 51.4425 38.136 51.5137 38.1703 51.5921C38.2047 51.6705 38.2225 51.7545 38.2226 51.8395C38.2238 53.8559 38.7733 55.8378 39.8177 57.5925C40.8621 59.3472 42.3659 60.8151 44.1829 61.8533V50.7728H38.5849C38.4574 50.7726 38.3325 50.7385 38.2242 50.6743C38.116 50.6102 38.0287 50.5186 37.9723 50.4098C37.9165 50.3011 37.8944 50.1795 37.9085 50.0592C37.9227 49.939 37.9725 49.8251 38.0523 49.7308L49.9674 35.2867C50.0306 35.2098 50.1114 35.1475 50.2037 35.1047C50.296 35.0619 50.3973 35.0397 50.5 35.0397C50.6027 35.0397 50.704 35.0619 50.7963 35.1047C50.8886 35.1475 50.9694 35.2098 51.0326 35.2867L62.9477 49.7308C63.0275 49.8251 63.0773 49.939 63.0915 50.0592C63.1056 50.1795 63.0834 50.3011 63.0276 50.4098C62.9712 50.5186 62.8839 50.6102 62.7757 50.6744C62.6674 50.7385 62.5425 50.7726 62.415 50.7728H56.8171V61.8533C58.6341 60.815 60.1378 59.3472 61.1822 57.5925C62.2266 55.8378 62.7761 53.8559 62.7772 51.8395C62.7774 51.7545 62.7952 51.6705 62.8296 51.5921C62.864 51.5137 62.9143 51.4425 62.9776 51.3826C63.0409 51.3228 63.116 51.2754 63.1987 51.2432C63.2813 51.211 63.3697 51.1946 63.459 51.1949L77.3182 51.195Z" fill="white"/>
</svg>
