<svg width="100" height="100" viewBox="0 0 100 100" fill="none" xmlns="http://www.w3.org/2000/svg">
<circle cx="50" cy="50" r="50" fill="#37786A"/>
<path d="M73.5703 62.5156H75.7132V64.4511H73.5703V62.5156Z" fill="white"/>
<path d="M69.2852 62.5156H71.428V64.4511H69.2852V62.5156Z" fill="white"/>
<path d="M74.6429 27.6774H71.4286V21.871C71.4286 19.7361 69.5064 18 67.1429 18H32.8571C30.4936 18 28.5714 19.7361 28.5714 21.871V27.6774H25.3571C22.4032 27.6774 20 29.8481 20 32.5161V63.4839C20 66.1519 22.4032 68.3226 25.3571 68.3226H41.0139L39.5857 72.1935H37.1429C35.3707 72.1935 33.9286 73.4961 33.9286 75.0968V77.0323C33.9286 77.5674 34.4075 78 35 78H65C65.5925 78 66.0714 77.5674 66.0714 77.0323V75.0968C66.0714 73.4961 64.6293 72.1935 62.8571 72.1935H60.4143L58.9861 68.3226H74.6429C77.5968 68.3226 80 66.1519 80 63.4839V32.5161C80 29.8481 77.5968 27.6774 74.6429 27.6774ZM30.7143 21.871C30.7143 20.8035 31.6754 19.9355 32.8571 19.9355H67.1429C68.3246 19.9355 69.2857 20.8035 69.2857 21.871V47.0323C69.2857 48.0997 68.3246 48.9677 67.1429 48.9677H32.8571C31.6754 48.9677 30.7143 48.0997 30.7143 47.0323V21.871ZM32.8571 50.9032H67.1429C69.5064 50.9032 71.4286 49.1671 71.4286 47.0323V33.4839H73.5714V58.6452H26.4286V33.4839H28.5714V47.0323C28.5714 49.1671 30.4936 50.9032 32.8571 50.9032ZM63.9286 75.0968V76.0645H36.0714V75.0968C36.0714 74.5626 36.5514 74.129 37.1429 74.129H62.8571C63.4486 74.129 63.9286 74.5626 63.9286 75.0968ZM58.1568 72.1935H41.8432L43.2714 68.3226H56.7286L58.1568 72.1935ZM77.8571 63.4839C77.8571 65.0845 76.415 66.3871 74.6429 66.3871H25.3571C23.585 66.3871 22.1429 65.0845 22.1429 63.4839V32.5161C22.1429 30.9155 23.585 29.6129 25.3571 29.6129H28.5714V31.5484H25.3571C24.7646 31.5484 24.2857 31.9819 24.2857 32.5161V59.6129C24.2857 60.1481 24.7646 60.5806 25.3571 60.5806H74.6429C75.2354 60.5806 75.7143 60.1481 75.7143 59.6129V32.5161C75.7143 31.9819 75.2354 31.5484 74.6429 31.5484H71.4286V29.6129H74.6429C76.415 29.6129 77.8571 30.9155 77.8571 32.5161V63.4839Z" fill="white"/>
<path d="M37.1417 47.0324H49.9989C50.5914 47.0324 51.0703 46.5988 51.0703 46.0646V41.2259H62.856C63.4485 41.2259 63.9275 40.7924 63.9275 40.2582V22.8388C63.9275 22.3046 63.4485 21.8711 62.856 21.8711H43.5703C42.9778 21.8711 42.4989 22.3046 42.4989 22.8388V33.484H37.1417C36.5492 33.484 36.0703 33.9175 36.0703 34.4517V46.0646C36.0703 46.5988 36.5492 47.0324 37.1417 47.0324ZM44.6417 23.8066H61.7846V39.2904H51.0703V34.4517C51.0703 33.9175 50.5914 33.484 49.9989 33.484H44.6417V23.8066ZM44.6417 35.4195H48.9275V39.2904H44.6417V35.4195ZM38.2132 35.4195H42.4989V40.2582C42.4989 40.7924 42.9778 41.2259 43.5703 41.2259H48.9275V45.0969H38.2132V35.4195Z" fill="white"/>
<path d="M52.9017 33.2016L56.4299 30.0148V31.5496H58.5728V27.6787C58.5728 27.1445 58.0939 26.7109 57.5014 26.7109H53.2156V28.6464H54.9149L51.3867 31.8332L52.9017 33.2016Z" fill="white"/>
</svg>
