<svg id="Layer_1" height="300" viewBox="0 0 512 512" width="300" xmlns="http://www.w3.org/2000/svg" data-name="Layer 1" version="1.1" xmlns:xlink="http://www.w3.org/1999/xlink" xmlns:svgjs="http://svgjs.dev/svgjs"><g transform="matrix(1,0,0,1,0,0)"><path d="m148.772 252.83-39.614-23.125-70.6 120.838 39.615 23.125 70.6-120.838zm178.355-166.559h-8.237a22.852 22.852 0 0 1 -45.509 0h-10.156v18.44a7.369 7.369 0 0 1 -10.293 6.8q-.43-.113-.975-.226a7.983 7.983 0 0 0 -9.446 7.934 8 8 0 0 0 2.35 5.668 8.1 8.1 0 0 0 5.69 2.343 8.353 8.353 0 0 0 1.406-.076c.521-.151.975-.227 1.345-.378a7.386 7.386 0 0 1 9.9 6.953h.023v24.938h29.087v-5.667a34.816 34.816 0 0 1 11.827-26.375 72.948 72.948 0 0 0 18.008-24.485 71.156 71.156 0 0 0 4.98-15.87zm-78.714 0v10.2a22.28 22.28 0 0 0 -14.019 6.575 22.877 22.877 0 0 0 0 32.344 23.074 23.074 0 0 0 14.019 6.575v16.7h-29.08v-5.665a34.751 34.751 0 0 0 -11.827-26.375 72.964 72.964 0 0 1 -18.006-24.484 71.221 71.221 0 0 1 -4.987-15.87h16.482a7.271 7.271 0 0 0 2.5-.453 7.352 7.352 0 0 0 4.436-9.447 8.793 8.793 0 0 1 -.347-1.36 8.435 8.435 0 0 1 -.121-1.436 8.022 8.022 0 0 1 8.04-8.01 8.106 8.106 0 0 1 5.691 2.342 8.018 8.018 0 0 1 2.365 5.668 7.755 7.755 0 0 1 -.128 1.436 6.29 6.29 0 0 1 -.227.983 7.644 7.644 0 0 0 -.582 2.871 7.418 7.418 0 0 0 7.406 7.406zm-65.2-14.812h9.537a22.859 22.859 0 0 1 45.509 0h10.157v-18.359h.022a7.4 7.4 0 0 1 9.9-6.952c.378.151.824.227 1.345.378a8.493 8.493 0 0 0 1.421.076 8.077 8.077 0 0 0 5.675-2.343 7.978 7.978 0 0 0 2.358-5.668 8.155 8.155 0 0 0 -8.037-8.091 8.232 8.232 0 0 0 -1.421.151c-.362.076-.68.151-.974.227a7.341 7.341 0 0 1 -2.888.6 7.418 7.418 0 0 1 -7.405-7.406v-23.872a72.54 72.54 0 0 0 -65.2 71.263zm80.015 0v-10.126a22.818 22.818 0 0 0 20.721-22.747 22.818 22.818 0 0 0 -20.721-22.747v-15.639a72.552 72.552 0 0 1 65.217 71.263h-17.792a7.408 7.408 0 0 0 -7.4 7.406 7.071 7.071 0 0 0 .583 2.872c.082.3.158.68.219.983a8.526 8.526 0 0 1 .121 1.435 8 8 0 0 1 -2.351 5.668 8.072 8.072 0 0 1 -11.373 0 7.981 7.981 0 0 1 -2.358-5.668 8.451 8.451 0 0 1 .114-1.435 10.45 10.45 0 0 1 .347-1.285 7.461 7.461 0 0 0 -4.428-9.522 7.237 7.237 0 0 0 -2.517-.378v-.076zm-32.247 126.28a24.3 24.3 0 0 0 22.377 15.416h4.927a24.3 24.3 0 0 0 22.377-15.416zm61.334-24.259h-72.982a9.508 9.508 0 0 0 9.446 9.447h54.079a9.521 9.521 0 0 0 9.454-9.447zm-195.301 197.32 57.686-98.775 20.117 10.5a7.542 7.542 0 0 0 3.423 1.058l24.841 1.285-20.851 18.515a7.2 7.2 0 0 0 -2.486 5.592l.242 59.777a11.755 11.755 0 0 0 1.768 6.272 11.433 11.433 0 0 0 4.86 4.384c7.194 3.551 14.252 4.458 21.174 2.645 6.507-1.663 12.583-5.744 18.213-12.167q6.6-6.348 10.2-17.231a94.183 94.183 0 0 0 4.118-23.653 10.775 10.775 0 0 1 3.575-4.837 10.38 10.38 0 0 1 3.529-1.814l118.729 116.611c.144.151.3.3.469.453a9.668 9.668 0 0 1 -13.112 14.207l-8.947-8.01h-.008l-53.3-47.761a7.392 7.392 0 0 0 -9.84 11.033l53.316 47.761a9.7 9.7 0 0 1 .741 13.6 9.75 9.75 0 0 1 -13.656.756l-8.736-7.784-.023-.076h-.007l-49.288-44.133a7.391 7.391 0 0 0 -9.839 11.033l49.317 44.134a9.522 9.522 0 0 1 3.144 6.65 9.812 9.812 0 0 1 -2.093 6.65h-.053a1.056 1.056 0 0 1 -.265.3 9.428 9.428 0 0 1 -6.68 3.175 9.621 9.621 0 0 1 -6.6-2.041l-.053-.076h-.015a.942.942 0 0 1 -.3-.3l-4.633-4.156c-.068 0-.12-.076-.181-.151h-.015l-.3-.227h-.007l-41.829-37.483a7.374 7.374 0 0 0 -10.406.6 7.294 7.294 0 0 0 .582 10.354l41.511 37.256h-.015a6.767 6.767 0 0 1 .687.6 9.722 9.722 0 0 1 .643 12.976v-.007a5.787 5.787 0 0 0 -.6.687 9.776 9.776 0 0 1 -13 .643 6.088 6.088 0 0 0 -.816-.711l-23.6-21.145a24.447 24.447 0 0 0 -6.371-22.746l-.226-.227a24.373 24.373 0 0 0 -9.265-5.744 24.514 24.514 0 0 0 -4.368-28.641 24.047 24.047 0 0 0 -10.119-6.046 24.9 24.9 0 0 0 1.9-9.521 24.5 24.5 0 0 0 -38.481-20.027 25.318 25.318 0 0 0 -5.562-8.615 24.594 24.594 0 0 0 -34.581 0l-9.809 9.824-8.7-14.585a7.366 7.366 0 0 0 -2.7-2.645zm292.9-114.49a6.1 6.1 0 0 1 .189.605l39.605 123.705 43.733-14.055-42.7-133.308-43.741 13.981 2.91 9.068zm-11.888 11.26-28.278 6.5a7.8 7.8 0 0 1 -2.955.076l-89.045-14.887a5.654 5.654 0 0 0 -2.774.151 6.391 6.391 0 0 0 -2.381 1.284l-58.083 51.54.219 54.638a14.6 14.6 0 0 0 9.348.907c3.658-.983 7.323-3.552 11.033-7.86.167-.151.34-.378.522-.529q4.013-3.741 6.507-11.335a81.7 81.7 0 0 0 3.476-20.858 7.2 7.2 0 0 1 .3-1.663 25.936 25.936 0 0 1 8.948-13.073 26.234 26.234 0 0 1 14.842-5.366 7.4 7.4 0 0 1 5.433 2.116l106.941 105.039 50.482-38.768-34.537-107.916zm-170.271 207.741-9.114 9.145a9.745 9.745 0 0 0 0 13.678 9.7 9.7 0 0 0 13.626 0l9.106-9.144a9.651 9.651 0 0 0 0-13.6h-.007a9.521 9.521 0 0 0 -6.817-2.8 9.743 9.743 0 0 0 -6.794 2.72zm-10.512-10.428h.046l10.353-10.354a9.742 9.742 0 0 0 0-13.678 9.707 9.707 0 0 0 -13.633 0l-19.475 19.5a9.684 9.684 0 0 0 -2.8 6.8 9.5 9.5 0 0 0 2.774 6.8l.06.076a9.76 9.76 0 0 0 6.779 2.8 9.862 9.862 0 0 0 6.824-2.8l9.076-9.144zm-41.866-54.563a9.46 9.46 0 0 0 2.8-6.8 9.646 9.646 0 0 0 -16.437-6.8l-15.432 15.417a9.745 9.745 0 0 0 0 13.678 9.717 9.717 0 0 0 13.641 0l15.424-15.492zm36.909-2.267a9.717 9.717 0 0 0 -13.641 0l-12.794 12.772-15.424 15.416a9.742 9.742 0 0 0 0 13.678 9.707 9.707 0 0 0 13.633 0l19.467-19.5h.008l8.751-8.766a9.582 9.582 0 0 0 2.8-6.8 9.456 9.456 0 0 0 -2.8-6.8z" fill-rule="evenodd" fill="#ffffffff" data-original-color="#000000ff" stroke="none"/></g></svg>