<svg id="Layer_1" enable-background="new 0 0 512 512" viewBox="0 0 512 512" xmlns="http://www.w3.org/2000/svg" xmlns:xlink="http://www.w3.org/1999/xlink" width="300" height="300" version="1.1" xmlns:svgjs="http://svgjs.dev/svgjs"><g transform="matrix(1,0,0,1,0,0)"><linearGradient id="SVGID_1_" gradientUnits="userSpaceOnUse" x1="387.13" x2="63.068" y1="63.067" y2="387.129"><stop offset="0" stop-color="#e93528"/><stop offset="1" stop-color="#f8bc16"/></linearGradient><path d="m481.408 230.048c-17.353 0-32.265-9.979-38.919-26.043-6.654-16.065-3.166-33.667 9.104-45.938 8.418-8.419 8.418-22.117 0-30.537l-31.417-31.416c-8.418-8.417-22.117-8.417-30.537 0-12.271 12.271-29.873 15.76-45.937 9.104-16.063-6.653-26.042-21.566-26.042-38.918 0-11.906-9.686-21.592-21.592-21.592h-44.427c-11.906 0-21.592 9.686-21.592 21.592 0 15.917-7.834 27.203-17.229 33.983v-73.167c0-9.989-8.127-18.116-18.117-18.116h-167.586c-9.99 0-18.117 8.127-18.117 18.116v106.114c0 9.99 8.127 18.117 18.117 18.117h59.723c.959 4.934 2.992 11.974 7.296 19.26 3.104 5.255 7.685 11.1 14.384 16.344.153 10.91-3.905 21.62-11.392 29.777-7.883 8.589-18.831 13.319-30.828 13.319-11.906 0-21.592 9.687-21.592 21.593v44.427c0 11.905 9.686 21.592 21.592 21.592 17.352 0 32.265 9.979 38.919 26.044 6.654 16.064 3.166 33.667-9.104 45.937-4.078 4.078-6.324 9.5-6.324 15.269s2.246 11.19 6.324 15.269l31.416 31.415c4.078 4.078 9.5 6.324 15.269 6.324 5.768 0 11.19-2.246 15.269-6.323 12.288-12.29 29.895-15.791 45.951-9.14 16.055 6.65 26.029 21.576 26.029 38.954 0 11.906 9.686 21.593 21.592 21.593h44.427c11.906 0 21.592-9.687 21.592-21.593 0-17.353 9.979-32.266 26.043-38.919 16.065-6.654 33.667-3.166 45.937 9.104 4.078 4.077 9.5 6.323 15.269 6.323s11.191-2.246 15.268-6.323l31.417-31.416c4.078-4.078 6.324-9.5 6.324-15.269s-2.246-11.19-6.324-15.269c-12.27-12.27-15.759-29.872-9.104-45.937 6.654-16.064 21.567-26.044 38.919-26.044 11.906 0 21.592-9.687 21.592-21.592v-44.427c-.001-11.905-9.687-21.591-21.593-21.591zm-381.426-85.845c-.079-3.81-3.189-6.855-6.999-6.855h-65.866c-2.27 0-4.117-1.847-4.117-4.117v-106.115c0-2.269 1.847-4.116 4.117-4.116h167.586c2.27 0 4.117 1.847 4.117 4.116v106.114c0 2.271-1.847 4.117-4.117 4.117h-56.67c-3.27 0-6.104 2.264-6.827 5.453-4.045 17.848-1.142 32.104 2.732 41.854-32.604-10.662-33.914-39.122-33.956-40.451zm389.018 151.864c0 4.187-3.406 7.592-7.592 7.592-23.122 0-42.991 13.291-51.854 34.686-8.862 21.396-4.211 44.845 12.139 61.195 1.434 1.433 2.223 3.34 2.223 5.368s-.79 3.936-2.223 5.368l-31.417 31.417c-1.433 1.434-3.34 2.223-5.368 2.223s-3.936-.789-5.369-2.224c-16.349-16.35-39.797-21-61.194-12.139-21.395 8.862-34.686 28.731-34.686 51.854 0 4.187-3.406 7.593-7.592 7.593h-44.427c-4.186 0-7.592-3.406-7.592-7.593 0-23.147-13.285-43.03-34.671-51.889-21.385-8.857-44.839-4.193-61.208 12.174-1.434 1.435-3.341 2.224-5.369 2.224-2.029 0-3.936-.789-5.369-2.224l-31.416-31.416c-1.434-1.433-2.223-3.34-2.223-5.368s.79-3.936 2.223-5.368c16.35-16.351 21.001-39.799 12.139-61.194s-28.731-34.687-51.854-34.687c-4.186 0-7.592-3.405-7.592-7.592v-44.427c0-4.187 3.406-7.593 7.592-7.593 15.965 0 30.576-6.34 41.142-17.853 8-8.716 13.04-19.648 14.582-31.15 6.841 3.077 15.021 5.468 24.81 6.692.289.036.577.054.862.054 2.559 0 4.936-1.419 6.165-3.72 1.366-2.556.999-5.708-.898-7.898-.547-.632-12.49-14.768-9.106-38.825h50.846c9.99 0 18.117-8.127 18.117-18.117v-16.64c19.383-9.477 31.229-28.337 31.229-50.29 0-4.187 3.406-7.592 7.592-7.592h44.427c4.187 0 7.592 3.405 7.592 7.592 0 23.122 13.291 42.991 34.686 51.854 21.396 8.863 44.844 4.212 61.193-12.139 2.962-2.961 7.778-2.961 10.738 0l31.417 31.415c2.96 2.961 2.96 7.778 0 10.738-16.35 16.351-21.001 39.799-12.139 61.194s28.731 34.686 51.854 34.686c4.186 0 7.592 3.406 7.592 7.593v44.426zm-215.146-158.766c-36.475 0-70.766 14.204-96.558 39.995-25.792 25.792-39.995 60.083-39.995 96.558 0 75.295 61.258 136.553 136.553 136.553 36.475 0 70.766-14.204 96.558-39.995 25.792-25.792 39.995-60.083 39.995-96.558 0-75.295-61.258-136.553-136.553-136.553zm-75.373 233.12c-.069-.489-.109-.977-.109-1.468 0-24.275 11.893-47.19 31.431-61.288l38.2 58.172c1.294 1.972 3.493 3.158 5.851 3.158s4.557-1.188 5.851-3.158l38.202-58.174c19.538 14.098 31.431 37.013 31.431 61.29 0 .524-.043 1.043-.121 1.565-21.442 16.785-47.702 25.888-75.362 25.888-28.399 0-54.571-9.712-75.374-25.985zm81.118-69.311c0-.001.001-.003.002-.005zm.209-.64h-11.907l-2.273-6.997h16.454zm-10.073 14h8.238l3.173 23.669-7.292 11.105-7.292-11.104zm92.945 43.82c-3.323-27.32-19.241-52.099-43.216-66.33-3.219-1.912-7.37-.951-9.424 2.178l-17.164 26.137-1.553-11.585c.664-.99 1.208-2.077 1.591-3.255l2.875-8.848c1.292-3.976.601-8.361-1.849-11.732-2.449-3.37-6.406-5.383-10.586-5.383h-19c-4.18 0-8.137 2.013-10.586 5.383-2.449 3.371-3.14 7.757-1.849 11.732l2.875 8.848c.382 1.177.927 2.264 1.591 3.254l-1.553 11.586-17.163-26.136c-2.054-3.128-6.205-4.088-9.424-2.178-23.951 14.217-39.863 38.962-43.207 66.25-20.896-21.989-33.737-51.702-33.737-84.359 0-32.735 12.747-63.511 35.895-86.658 23.147-23.146 53.923-35.895 86.658-35.895 67.576 0 122.553 54.977 122.553 122.553.001 31.7-11.953 61.561-33.727 84.438zm-88.826-177.025c-24.88 0-45.123 20.239-45.123 45.116 0 24.881 20.242 45.123 45.123 45.123s45.123-20.242 45.123-45.123c0-24.877-20.242-45.116-45.123-45.116zm0 76.239c-17.161 0-31.123-13.962-31.123-31.123 0-17.157 13.961-31.116 31.123-31.116s31.123 13.959 31.123 31.116c0 17.161-13.961 31.123-31.123 31.123zm-229.145-209.948c0-3.866 3.134-7 7-7h118.402c3.866 0 7 3.134 7 7s-3.134 7-7 7h-118.402c-3.866 0-7-3.134-7-7zm0 32.618c0-3.866 3.134-7 7-7h118.402c3.866 0 7 3.134 7 7s-3.134 7-7 7h-118.402c-3.866 0-7-3.134-7-7zm125.402 39.617h-118.402c-3.866 0-7-3.134-7-7s3.134-7 7-7h118.402c3.866 0 7 3.134 7 7s-3.134 7-7 7z" fill="#ffffffff" data-original-color="SVGID_1_" stroke="none"/></g></svg>