<svg width="32" height="32" viewBox="0 0 32 32" fill="none" xmlns="http://www.w3.org/2000/svg">
<path fill-rule="evenodd" clip-rule="evenodd" d="M17.308 6.42213L20.4705 8.24801C20.4935 8.26132 20.516 8.27538 20.5379 8.28988L21.3665 8.76826L24.9978 5.13701C24.6515 4.35717 24.589 3.48074 24.8213 2.65969C25.0535 1.83863 25.5658 1.12475 26.2692 0.641829C26.9727 0.15891 27.8229 -0.0625873 28.6726 0.0157488C29.5223 0.094085 30.3177 0.467314 30.921 1.07071C31.5243 1.67411 31.8974 2.46962 31.9756 3.31929C32.0538 4.16897 31.8321 5.01921 31.3491 5.72258C30.8661 6.42595 30.1521 6.93809 29.331 7.17018C28.5099 7.40227 27.6335 7.33968 26.8537 6.99326L23.72 10.127L24.2842 10.4528C24.4836 10.5672 24.6493 10.7322 24.7646 10.9311C24.8798 11.1301 24.9405 11.3559 24.9405 11.5858H24.946V14.6703H26.5689C26.8661 14.0985 27.3468 13.6433 27.9339 13.3778C28.521 13.1123 29.1804 13.052 29.8059 13.2064C30.4315 13.3608 30.9869 13.7211 31.383 14.2294C31.7791 14.7376 31.9927 15.3643 31.9897 16.0086C31.9866 16.6529 31.767 17.2775 31.3661 17.782C30.9652 18.2864 30.4063 18.6414 29.7793 18.7899C29.1523 18.9384 28.4936 18.8717 27.9091 18.6006C27.3245 18.3295 26.8481 17.8698 26.5564 17.2953H24.9455V20.4046C24.9456 20.6562 24.8733 20.9026 24.7373 21.1143C24.6012 21.3261 24.4072 21.4942 24.1783 21.5988L23.7198 21.8634L26.8536 24.9972C27.6334 24.6508 28.5099 24.5882 29.331 24.8204C30.1521 25.0525 30.866 25.5647 31.349 26.2682C31.832 26.9716 32.0536 27.8219 31.9754 28.6716C31.8971 29.5212 31.5239 30.3168 30.9206 30.9201C30.3172 31.5235 29.5217 31.8967 28.672 31.9749C27.8223 32.0532 26.972 31.8316 26.2686 31.3486C25.5652 30.8656 25.053 30.1516 24.8208 29.3305C24.5887 28.5094 24.6513 27.6329 24.9976 26.8531L21.3664 23.2219L20.4691 23.7399L20.4704 23.7422L17.308 25.5684V26.5618C17.8812 26.8562 18.3387 27.3348 18.6071 27.9207C18.8754 28.5066 18.9389 29.1656 18.7875 29.792C18.636 30.4183 18.2784 30.9755 17.772 31.374C17.2656 31.7726 16.6399 31.9892 15.9955 31.9892C15.3511 31.9892 14.7255 31.7726 14.2191 31.374C13.7127 30.9755 13.355 30.4183 13.2036 29.792C13.0521 29.1656 13.1156 28.5066 13.384 27.9207C13.6523 27.3348 14.1098 26.8562 14.683 26.5618V25.5684L11.5205 23.7426C11.4975 23.7292 11.4751 23.7152 11.4531 23.7007L10.6245 23.2223L6.99327 26.8535C7.33973 27.6333 7.40234 28.5098 7.17025 29.3309C6.93816 30.1521 6.426 30.8661 5.72259 31.3492C5.01918 31.8322 4.16889 32.0539 3.31917 31.9757C2.46945 31.8975 1.67389 31.5244 1.07045 30.9211C0.467021 30.3177 0.0937723 29.5222 0.0154358 28.6725C-0.0629008 27.8228 0.158616 26.9725 0.641571 26.269C1.12453 25.5655 1.83846 25.0532 2.65956 24.821C3.48067 24.5888 4.35715 24.6512 5.13702 24.9976L8.27077 21.8638L7.70652 21.538C7.50716 21.4236 7.34152 21.2585 7.22635 21.0596C7.11118 20.8606 7.05055 20.6348 7.05059 20.4049H7.04552V17.3078H5.42902C5.13458 17.8809 4.65596 18.3385 4.07009 18.6068C3.48423 18.8751 2.82515 18.9387 2.19882 18.7872C1.57248 18.6358 1.01526 18.2781 0.61674 17.7717C0.218219 17.2653 0.00154335 16.6396 0.00154335 15.9953C0.00154335 15.3509 0.218219 14.7252 0.61674 14.2188C1.01526 13.7124 1.57248 13.3548 2.19882 13.2033C2.82515 13.0518 3.48423 13.1154 4.07009 13.3837C4.65596 13.652 5.13458 14.1096 5.42902 14.6828H7.04552V11.5858C7.04546 11.3341 7.11776 11.0877 7.25379 10.876C7.38982 10.6643 7.58386 10.4961 7.81277 10.3916L8.27115 10.1269L5.1374 6.99319C4.35757 7.33948 3.48113 7.40193 2.66008 7.1697C1.83903 6.93747 1.12514 6.42521 0.642222 5.72176C0.159302 5.01831 -0.062195 4.16803 0.0161412 3.31837C0.0944774 2.46871 0.467706 1.67326 1.0711 1.06997C1.6745 0.466668 2.47001 0.0935733 3.31969 0.0153802C4.16936 -0.0628129 5.0196 0.158827 5.72297 0.641865C6.42634 1.1249 6.93848 1.83887 7.17057 2.65997C7.40266 3.48106 7.34007 4.35748 6.99365 5.13726L10.6249 8.76851L11.5222 8.25044L11.5209 8.24826L14.683 6.42213V5.42876C14.1098 5.13431 13.6523 4.65569 13.384 4.06983C13.1156 3.48396 13.0521 2.82489 13.2036 2.19855C13.355 1.57221 13.7127 1.01499 14.2191 0.616473C14.7255 0.217952 15.3511 0.001276 15.9955 0.001276C16.6399 0.001276 17.2656 0.217952 17.772 0.616473C18.2784 1.01499 18.636 1.57221 18.7875 2.19855C18.9389 2.82489 18.8754 3.48396 18.6071 4.06983C18.3387 4.65569 17.8812 5.13431 17.308 5.42876V6.42213ZM4.38109 27.6096C4.21235 27.4408 3.99028 27.3357 3.75273 27.3122C3.51517 27.2887 3.27682 27.3483 3.0783 27.4809C2.87978 27.6135 2.73337 27.8108 2.66402 28.0392C2.59467 28.2676 2.60667 28.513 2.69798 28.7336C2.78928 28.9541 2.95424 29.1362 3.16475 29.2488C3.37526 29.3613 3.61828 29.3974 3.85242 29.3509C4.08655 29.3043 4.2973 29.1781 4.44876 28.9936C4.60022 28.809 4.68301 28.5777 4.68302 28.339C4.68323 28.2035 4.65666 28.0694 4.60485 27.9442C4.55303 27.8191 4.47699 27.7054 4.38109 27.6097V27.6096ZM4.38109 2.92213C4.21233 2.75324 3.99024 2.6481 3.75265 2.62461C3.51506 2.60113 3.27668 2.66076 3.07813 2.79334C2.87958 2.92592 2.73315 3.12324 2.66378 3.35169C2.59442 3.58014 2.60642 3.82557 2.69774 4.04617C2.78905 4.26676 2.95404 4.44886 3.16458 4.56144C3.37512 4.67402 3.61818 4.71011 3.85234 4.66356C4.0865 4.61701 4.29728 4.4907 4.44875 4.30615C4.60023 4.12161 4.68302 3.89025 4.68302 3.65151C4.68322 3.51604 4.65665 3.38188 4.60483 3.25672C4.55302 3.13156 4.47698 3.01781 4.38109 2.92213ZM29.0686 27.6096C28.8998 27.4408 28.6778 27.3357 28.4402 27.3122C28.2027 27.2887 27.9643 27.3483 27.7658 27.4809C27.5673 27.6135 27.4209 27.8108 27.3515 28.0392C27.2822 28.2676 27.2942 28.513 27.3855 28.7336C27.4768 28.9541 27.6417 29.1362 27.8523 29.2488C28.0628 29.3613 28.3058 29.3974 28.5399 29.3509C28.774 29.3043 28.9848 29.1781 29.1363 28.9936C29.2877 28.809 29.3705 28.5777 29.3705 28.339C29.3707 28.2035 29.3442 28.0694 29.2923 27.9442C29.2405 27.8191 29.1645 27.7054 29.0686 27.6097V27.6096ZM3.04746 16.1721C3.08852 16.1312 3.11411 16.0773 3.11987 16.0196C3.12563 15.9619 3.1112 15.904 3.07904 15.8557C3.04688 15.8075 2.99899 15.7719 2.94352 15.755C2.88805 15.7381 2.82844 15.741 2.77485 15.7631C2.72126 15.7853 2.67701 15.8253 2.64965 15.8764C2.62228 15.9276 2.61349 15.9866 2.62478 16.0435C2.63607 16.1003 2.66673 16.1515 2.71154 16.1883C2.75635 16.2251 2.81254 16.2453 2.87052 16.2453C2.90338 16.2453 2.93593 16.2389 2.96629 16.2264C2.99666 16.2138 3.02424 16.1954 3.04746 16.1721ZM16.1725 28.9434C16.1315 28.9023 16.0776 28.8767 16.02 28.8709C15.9623 28.8652 15.9044 28.8796 15.8561 28.9117C15.8079 28.9439 15.7723 28.9918 15.7554 29.0472C15.7385 29.1027 15.7414 29.1623 15.7635 29.2158C15.7856 29.2694 15.8257 29.3137 15.8768 29.341C15.9279 29.3684 15.9869 29.3772 16.0437 29.3659C16.1006 29.3546 16.1518 29.324 16.1886 29.2792C16.2254 29.2344 16.2455 29.1782 16.2455 29.1203C16.2456 29.0874 16.2392 29.0549 16.2266 29.0245C16.2141 28.9942 16.1956 28.9666 16.1724 28.9434H16.1725ZM29.0686 2.92219C28.8998 2.7533 28.6777 2.64816 28.4401 2.62468C28.2026 2.60119 27.9642 2.66082 27.7656 2.79341C27.5671 2.92599 27.4206 3.12333 27.3513 3.35178C27.2819 3.58023 27.2939 3.82567 27.3853 4.04626C27.4766 4.26685 27.6416 4.44895 27.8521 4.56152C28.0627 4.67409 28.3057 4.71017 28.5399 4.66361C28.7741 4.61705 28.9848 4.49073 29.1363 4.30617C29.2878 4.12162 29.3705 3.89025 29.3705 3.65151C29.3707 3.51604 29.3442 3.38188 29.2923 3.25672C29.2405 3.13156 29.1645 3.01787 29.0686 2.92219ZM29.2974 16.1722C29.3385 16.1313 29.3641 16.0774 29.3698 16.0197C29.3756 15.962 29.3612 15.9041 29.329 15.8559C29.2969 15.8076 29.249 15.772 29.1936 15.7551C29.1381 15.7382 29.0785 15.7411 29.0249 15.7632C28.9714 15.7854 28.9271 15.8254 28.8997 15.8765C28.8724 15.9276 28.8636 15.9866 28.8749 16.0435C28.8861 16.1003 28.9168 16.1515 28.9616 16.1883C29.0064 16.2251 29.0626 16.2452 29.1205 16.2453C29.1534 16.2453 29.1859 16.2389 29.2163 16.2264C29.2466 16.2138 29.2742 16.1954 29.2974 16.1721V16.1722ZM16.1724 2.69344C16.1315 2.65239 16.0776 2.62681 16.0199 2.62106C15.9622 2.61531 15.9043 2.62975 15.8561 2.66191C15.8078 2.69407 15.7722 2.74197 15.7554 2.79743C15.7385 2.85289 15.7414 2.91249 15.7635 2.96606C15.7857 3.01964 15.8257 3.06386 15.8769 3.09121C15.928 3.11856 15.987 3.12732 16.0439 3.11602C16.1007 3.10472 16.1519 3.07404 16.1887 3.02923C16.2254 2.98441 16.2455 2.92823 16.2455 2.87026C16.2456 2.83741 16.2392 2.80488 16.2266 2.77452C16.2141 2.74417 16.1956 2.71659 16.1724 2.69338V2.69344ZM17.308 16.7494V22.5445L19.158 21.4765L19.1593 21.4788L22.3205 19.6538V13.8555L17.308 16.7493L17.308 16.7494ZM14.683 22.5445V16.7464L9.67052 13.8527V19.6537L12.76 21.4374C12.7845 21.4499 12.8089 21.4624 12.833 21.4766L14.683 22.5445ZM10.9717 11.5858L15.993 14.4848L21.0168 11.5843L19.231 10.5531C19.2065 10.5406 19.1821 10.5281 19.158 10.5139L15.9955 8.68826L12.833 10.514L12.8318 10.5117L10.9717 11.5858Z" fill="#E2AC54"/>
<path fill-rule="evenodd" clip-rule="evenodd" d="M15.9982 1C16.3939 0.999654 16.7807 1.11666 17.1099 1.33621C17.439 1.55577 17.6956 1.86801 17.8473 2.23343C17.9989 2.59886 18.0388 3.00105 17.9618 3.38913C17.8848 3.77721 17.6945 4.13374 17.4148 4.41362C17.1352 4.69349 16.7788 4.88414 16.3908 4.96145C16.0028 5.03875 15.6005 4.99924 15.235 4.84791C14.8694 4.69657 14.557 4.44022 14.3372 4.11128C14.1173 3.78233 14 3.39558 14 2.99994C14.0006 2.46999 14.2112 1.96188 14.5858 1.58699C14.9604 1.2121 15.4683 1.00101 15.9982 1Z" fill="#37786A"/>
<path fill-rule="evenodd" clip-rule="evenodd" d="M2.99825 14C3.39389 13.9997 3.78074 14.1167 4.10987 14.3362C4.439 14.5558 4.69562 14.868 4.84726 15.2334C4.9989 15.5989 5.03876 16.0011 4.96178 16.3891C4.8848 16.7772 4.69445 17.1337 4.41481 17.4136C4.13517 17.6935 3.7788 17.8841 3.39079 17.9614C3.00277 18.0388 2.60055 17.9992 2.23499 17.8479C1.86944 17.6966 1.55699 17.4402 1.33715 17.1113C1.11732 16.7823 0.999988 16.3956 1 15.9999C1.00056 15.47 1.21122 14.9619 1.58579 14.587C1.96037 14.2121 2.4683 14.001 2.99825 14Z" fill="#37786A"/>
<path fill-rule="evenodd" clip-rule="evenodd" d="M28.9982 14C29.3939 13.9997 29.7807 14.1167 30.1099 14.3362C30.439 14.5558 30.6956 14.868 30.8473 15.2334C30.9989 15.5989 31.0388 16.0011 30.9618 16.3891C30.8848 16.7772 30.6945 17.1337 30.4148 17.4136C30.1352 17.6935 29.7788 17.8841 29.3908 17.9614C29.0028 18.0388 28.6005 17.9992 28.235 17.8479C27.8694 17.6966 27.557 17.4402 27.3372 17.1113C27.1173 16.7823 27 16.3956 27 15.9999C27.0006 15.47 27.2112 14.9619 27.5858 14.587C27.9604 14.2121 28.4683 14.001 28.9982 14Z" fill="#37786A"/>
<path fill-rule="evenodd" clip-rule="evenodd" d="M3.49781 26C3.99236 25.9996 4.47593 26.1458 4.88734 26.4203C5.29875 26.6947 5.61952 27.085 5.80908 27.5418C5.99863 27.9986 6.04844 28.5013 5.95222 28.9864C5.856 29.4715 5.61806 29.9172 5.26851 30.267C4.91896 30.6169 4.4735 30.8552 3.98848 30.9518C3.50347 31.0484 3.00068 30.9991 2.54374 30.8099C2.0868 30.6207 1.69623 30.3003 1.42144 29.8891C1.14665 29.4779 0.999985 28.9945 1 28.4999C1.0007 27.8375 1.26402 27.2023 1.73224 26.7337C2.20046 26.2651 2.83537 26.0013 3.49781 26Z" fill="#37786A"/>
<path fill-rule="evenodd" clip-rule="evenodd" d="M28.4978 1C28.9924 0.999568 29.4759 1.14582 29.8873 1.42027C30.2988 1.69471 30.6195 2.08501 30.8091 2.54179C30.9986 2.99857 31.0484 3.50131 30.9522 3.98641C30.856 4.47151 30.6181 4.91717 30.2685 5.26702C29.919 5.61687 29.4735 5.85518 28.9885 5.95181C28.5035 6.04844 28.0007 5.99905 27.5437 5.80988C27.0868 5.62072 26.6962 5.30028 26.4214 4.8891C26.1467 4.47792 26 3.99447 26 3.49992C26.0007 2.83748 26.264 2.20235 26.7322 1.73373C27.2005 1.26512 27.8354 1.00126 28.4978 1Z" fill="#37786A"/>
<path fill-rule="evenodd" clip-rule="evenodd" d="M15.9982 27C16.3939 26.9997 16.7807 27.1167 17.1099 27.3362C17.439 27.5558 17.6956 27.868 17.8473 28.2334C17.9989 28.5989 18.0388 29.0011 17.9618 29.3891C17.8848 29.7772 17.6945 30.1337 17.4148 30.4136C17.1352 30.6935 16.7788 30.8841 16.3908 30.9614C16.0028 31.0388 15.6005 30.9992 15.235 30.8479C14.8694 30.6966 14.557 30.4402 14.3372 30.1113C14.1173 29.7823 14 29.3956 14 28.9999C14.0006 28.47 14.2112 27.9619 14.5858 27.587C14.9604 27.2121 15.4683 27.001 15.9982 27Z" fill="#37786A"/>
<path fill-rule="evenodd" clip-rule="evenodd" d="M3.49781 1C3.99236 0.999568 4.47593 1.14582 4.88734 1.42027C5.29875 1.69471 5.61952 2.08501 5.80908 2.54179C5.99863 2.99857 6.04844 3.50131 5.95222 3.98641C5.856 4.47151 5.61806 4.91717 5.26851 5.26702C4.91896 5.61687 4.4735 5.85518 3.98848 5.95181C3.50347 6.04844 3.00068 5.99905 2.54374 5.80988C2.0868 5.62072 1.69623 5.30028 1.42144 4.8891C1.14665 4.47792 0.999985 3.99447 1 3.49992C1.0007 2.83748 1.26402 2.20235 1.73224 1.73373C2.20046 1.26512 2.83537 1.00126 3.49781 1Z" fill="#37786A"/>
<path fill-rule="evenodd" clip-rule="evenodd" d="M28.4978 26C28.9924 25.9996 29.4759 26.1458 29.8873 26.4203C30.2988 26.6947 30.6195 27.085 30.8091 27.5418C30.9986 27.9986 31.0484 28.5013 30.9522 28.9864C30.856 29.4715 30.6181 29.9172 30.2685 30.267C29.919 30.6169 29.4735 30.8552 28.9885 30.9518C28.5035 31.0484 28.0007 30.9991 27.5437 30.8099C27.0868 30.6207 26.6962 30.3003 26.4214 29.8891C26.1467 29.4779 26 28.9945 26 28.4999C26.0007 27.8375 26.264 27.2023 26.7322 26.7337C27.2005 26.2651 27.8354 26.0013 28.4978 26Z" fill="#37786A"/>
</svg>
