<svg width="420" height="420" viewBox="0 0 420 420" fill="none" xmlns="http://www.w3.org/2000/svg">
<path d="M28.2134 105.748L106.481 27.4805C92.5669 35.4315 79.6962 44.923 68.0182 55.7065L56.4394 67.2852C45.6559 78.9136 36.1644 91.8339 28.2134 105.748Z" fill="#37786A"/>
<path d="M4.85742 167.965L168.698 4.125C164.176 5.01949 159.703 6.11275 155.281 7.3054L8.0379 154.548C6.79555 158.971 5.75191 163.443 4.85742 167.965Z" fill="#37786A"/>
<path d="M0.682617 209.609C0.682617 210.056 0.682617 210.503 0.682617 210.95L211.633 0C211.186 0 210.739 0 210.291 0C207.26 0 204.229 0.0993543 201.197 0.198742L0.881283 200.515C0.781896 203.546 0.682617 206.528 0.682617 209.609Z" fill="#37786A"/>
<path d="M3.96195 246.532L247.313 3.18048C244.381 2.68354 241.399 2.18661 238.467 1.78906L2.62012 237.636C2.96797 240.668 3.41532 243.6 3.96195 246.532Z" fill="#37786A"/>
<path d="M11.9135 277.44L278.173 11.18C275.589 10.2855 273.005 9.49041 270.421 8.69531L9.47852 269.638C10.224 272.272 11.019 274.856 11.9135 277.44Z" fill="#37786A"/>
<path d="M23.492 304.72L305.505 22.7083C303.219 21.5654 300.933 20.4224 298.597 19.3789L20.1128 297.814C21.2061 300.15 22.2993 302.435 23.492 304.72Z" fill="#37786A"/>
<path d="M38.0023 329.022L329.755 37.2691C327.717 35.8777 325.68 34.4862 323.643 33.1445L33.9277 322.86C35.2694 324.947 36.6109 326.985 38.0023 329.022Z" fill="#37786A"/>
<path d="M55.2468 350.638L351.372 54.5127C349.583 52.8728 347.745 51.2827 345.906 49.7422L50.4263 345.221C52.0165 347.06 53.6069 348.849 55.2468 350.638Z" fill="#37786A"/>
<path d="M75.0253 369.721L370.455 74.2905C368.915 72.4519 367.325 70.6132 365.685 68.8242L69.5591 364.95C71.3481 366.59 73.1866 368.18 75.0253 369.721Z" fill="#37786A"/>
<path d="M97.3866 386.22L387.003 96.6044C385.661 94.5173 384.319 92.4799 382.878 90.4922L91.2246 382.145C93.2621 383.536 95.2995 384.928 97.3866 386.22Z" fill="#37786A"/>
<path d="M122.482 399.987L400.718 121.751C399.624 119.416 398.531 117.13 397.388 114.844L115.574 396.657C117.86 397.8 120.146 398.894 122.482 399.987Z" fill="#37786A"/>
<path d="M150.708 410.619L411.402 149.975C410.607 147.341 409.812 144.757 408.967 142.223L142.956 408.234C145.49 409.029 148.075 409.824 150.708 410.619Z" fill="#37786A"/>
<path d="M182.711 417.431L418.16 181.981C417.762 178.999 417.315 176.068 416.818 173.086L173.865 416.039C176.797 416.586 179.729 417.033 182.711 417.431Z" fill="#37786A"/>
<path d="M210.342 419.266C213.572 419.266 216.802 419.167 219.982 419.018L419.752 219.249C419.901 216.069 420 212.839 420 209.609C420 209.36 420 209.061 420 208.812L209.596 419.217C209.795 419.217 210.093 419.266 210.342 419.266Z" fill="#37786A"/>
<path d="M266.147 411.711L412.446 265.412C413.688 260.99 414.781 256.467 415.676 251.945L252.63 414.991C257.202 414.047 261.725 412.953 266.147 411.711Z" fill="#37786A"/>
<path d="M391.723 314.762L315.493 390.992C347.048 372.655 373.386 346.317 391.723 314.762Z" fill="#37786A"/>
</svg>
